{"glyphs":{"0":{"ha":653,"x_min":26,"x_max":625,"o":"m 486 436 l 532 482 l 578 535 l 619 597 l 625 618 l 611 629 l 596 624 l 564 593 l 517 549 l 456 492 l 386 432 l 329 385 l 260 332 l 208 292 l 160 260 l 122 240 l 97 235 l 78 240 l 46 254 l 31 250 l 26 235 l 28 218 l 44 189 l 81 156 l 110 136 l 140 138 l 171 167 l 207 201 l 249 232 l 308 281 l 372 336 l 429 385 l 486 436 m 83 703 l 64 704 l 44 704 l 32 699 l 33 686 l 43 671 l 76 654 l 101 636 l 144 606 l 175 585 l 203 578 l 224 588 l 233 611 l 231 632 l 215 654 l 188 674 l 146 692 l 83 703 z "},"1":{"ha":528,"x_min":24,"x_max":508,"o":"m 336 306 l 331 146 l 326 88 l 331 61 l 346 40 l 364 29 l 379 31 l 396 47 l 403 64 l 404 83 l 403 197 l 401 303 l 404 432 l 408 453 l 403 472 l 374 506 l 365 515 l 365 524 l 374 536 l 440 610 l 478 650 l 489 653 l 507 671 l 508 689 l 494 713 l 447 751 l 419 763 l 404 758 l 390 744 l 390 731 l 401 717 l 403 701 l 397 685 l 385 661 l 340 604 l 263 528 l 235 499 l 182 456 l 119 406 l 56 361 l 39 349 l 25 335 l 24 321 l 39 313 l 64 318 l 144 363 l 203 399 l 268 447 l 300 472 l 314 475 l 326 465 l 336 443 l 336 306 z "},"2":{"ha":653,"x_min":25,"x_max":624,"o":"m 414 269 l 411 282 l 410 289 l 408 294 l 406 307 l 401 318 l 399 328 l 397 336 l 394 344 l 392 354 l 389 367 l 386 375 l 383 386 l 379 393 l 389 396 l 397 399 l 408 403 l 417 406 l 429 408 l 440 411 l 450 415 l 463 418 l 474 421 l 485 424 l 490 426 l 499 428 l 508 432 l 515 433 l 529 435 l 539 435 l 549 435 l 557 435 l 567 435 l 578 435 l 589 435 l 600 438 l 608 440 l 617 447 l 622 456 l 624 461 l 624 471 l 622 481 l 618 486 l 615 492 l 607 501 l 599 506 l 588 510 l 575 513 l 567 514 l 558 514 l 550 513 l 536 507 l 529 504 l 524 501 l 517 497 l 508 493 l 500 492 l 493 490 l 481 488 l 469 485 l 458 482 l 446 478 l 440 476 l 431 472 l 418 469 l 413 468 l 400 465 l 390 461 l 383 460 l 369 457 l 361 456 l 360 464 l 357 472 l 354 485 l 351 496 l 349 506 l 346 517 l 343 531 l 339 539 l 336 550 l 332 557 l 332 563 l 340 565 l 351 569 l 363 575 l 371 579 l 383 582 l 393 585 l 400 586 l 411 588 l 424 589 l 436 590 l 446 592 l 456 594 l 464 596 l 472 600 l 481 604 l 486 611 l 488 619 l 489 632 l 488 640 l 486 650 l 481 660 l 474 665 l 467 669 l 457 675 l 449 676 l 447 676 l 440 676 l 433 675 l 424 669 l 414 665 l 408 663 l 399 656 l 390 651 l 383 646 l 374 643 l 365 639 l 356 636 l 346 633 l 338 631 l 329 629 l 321 626 l 318 633 l 317 640 l 315 650 l 314 660 l 313 667 l 310 676 l 308 686 l 307 697 l 306 708 l 304 721 l 304 729 l 306 738 l 306 749 l 304 754 l 297 764 l 286 774 l 279 778 l 274 781 l 267 785 l 256 789 l 249 792 l 238 793 l 231 793 l 219 793 l 210 792 l 204 790 l 199 785 l 192 778 l 189 768 l 189 758 l 193 749 l 200 743 l 207 740 l 215 736 l 224 733 l 232 726 l 235 721 l 239 713 l 244 701 l 247 688 l 250 676 l 251 663 l 253 651 l 254 640 l 256 631 l 257 617 l 258 607 l 253 606 l 243 603 l 231 599 l 221 594 l 213 590 l 201 586 l 189 582 l 176 578 l 165 574 l 157 569 l 146 567 l 133 564 l 128 563 l 119 561 l 111 558 l 101 561 l 92 565 l 86 568 l 79 571 l 74 571 l 71 571 l 67 568 l 61 565 l 60 561 l 60 553 l 61 547 l 67 539 l 69 535 l 74 529 l 81 521 l 89 515 l 99 510 l 106 508 l 117 507 l 129 507 l 139 507 l 150 508 l 156 510 l 164 514 l 174 517 l 183 519 l 192 522 l 201 526 l 208 529 l 219 532 l 231 535 l 242 538 l 253 540 l 260 542 l 271 543 l 278 546 l 281 535 l 283 522 l 286 513 l 289 503 l 292 489 l 294 478 l 297 467 l 300 457 l 303 451 l 304 440 l 297 439 l 289 436 l 276 432 l 264 426 l 254 422 l 246 419 l 236 417 l 229 413 l 215 408 l 206 406 l 193 400 l 185 396 l 175 393 l 165 390 l 156 388 l 147 385 l 138 382 l 128 378 l 117 374 l 108 371 l 97 369 l 89 368 l 82 368 l 69 369 l 64 371 l 53 375 l 47 378 l 39 375 l 35 374 l 28 368 l 26 364 l 25 360 l 26 346 l 32 338 l 38 328 l 43 321 l 50 314 l 58 310 l 68 306 l 79 301 l 86 299 l 93 299 l 101 299 l 110 301 l 118 306 l 125 308 l 136 314 l 144 318 l 153 321 l 161 324 l 168 328 l 178 331 l 189 335 l 199 338 l 204 339 l 211 342 l 224 346 l 232 350 l 242 356 l 253 360 l 258 363 l 269 367 l 278 369 l 289 374 l 300 378 l 313 382 l 317 372 l 321 361 l 324 351 l 326 339 l 329 329 l 331 322 l 335 310 l 336 301 l 338 293 l 340 281 l 343 271 l 344 261 l 346 250 l 347 240 l 349 228 l 349 217 l 350 208 l 351 197 l 353 188 l 354 176 l 357 163 l 360 157 l 363 146 l 365 136 l 368 128 l 372 119 l 376 113 l 383 106 l 386 100 l 390 94 l 396 89 l 399 86 l 403 85 l 413 85 l 422 86 l 431 92 l 438 99 l 442 106 l 446 114 l 446 124 l 444 136 l 443 149 l 440 161 l 438 171 l 435 183 l 432 194 l 429 208 l 425 221 l 424 228 l 422 238 l 418 249 l 415 261 l 414 269 z "},"3":{"ha":667,"x_min":26,"x_max":632,"o":"m 415 269 l 413 282 l 411 289 l 410 294 l 407 307 l 403 318 l 400 328 l 399 336 l 396 344 l 393 354 l 390 367 l 388 375 l 385 386 l 381 393 l 390 396 l 399 399 l 410 403 l 418 406 l 431 408 l 442 411 l 451 415 l 464 418 l 475 421 l 486 424 l 492 426 l 500 428 l 510 432 l 517 433 l 531 435 l 540 435 l 550 435 l 558 435 l 568 435 l 579 435 l 590 435 l 601 438 l 610 440 l 618 447 l 624 456 l 625 461 l 625 471 l 624 481 l 619 486 l 617 492 l 608 501 l 600 506 l 589 510 l 576 513 l 568 514 l 560 514 l 551 513 l 538 507 l 531 504 l 525 501 l 518 497 l 510 493 l 501 492 l 494 490 l 482 488 l 471 485 l 460 482 l 447 478 l 442 476 l 432 472 l 419 469 l 414 468 l 401 465 l 392 461 l 385 460 l 371 457 l 363 456 l 361 464 l 358 472 l 356 485 l 353 496 l 350 506 l 347 517 l 344 531 l 340 539 l 338 550 l 333 557 l 333 563 l 342 565 l 353 569 l 364 575 l 372 579 l 385 582 l 394 585 l 401 586 l 413 588 l 425 589 l 438 590 l 447 592 l 457 594 l 465 596 l 474 600 l 482 604 l 488 611 l 489 619 l 490 632 l 489 640 l 488 650 l 482 660 l 475 665 l 468 669 l 458 675 l 450 676 l 449 676 l 442 676 l 435 675 l 425 669 l 415 665 l 410 663 l 400 656 l 392 651 l 385 646 l 375 643 l 367 639 l 357 636 l 347 633 l 339 631 l 331 629 l 322 626 l 319 633 l 318 640 l 317 650 l 315 660 l 314 667 l 311 676 l 310 686 l 308 697 l 307 708 l 306 721 l 306 729 l 307 738 l 307 749 l 306 754 l 299 764 l 288 774 l 281 778 l 275 781 l 268 785 l 257 789 l 250 792 l 239 793 l 232 793 l 221 793 l 211 792 l 206 790 l 200 785 l 193 778 l 190 768 l 190 758 l 194 749 l 201 743 l 208 740 l 217 736 l 225 733 l 233 726 l 236 721 l 240 713 l 246 701 l 249 688 l 251 676 l 253 663 l 254 651 l 256 640 l 257 631 l 258 617 l 260 607 l 254 606 l 244 603 l 232 599 l 222 594 l 214 590 l 203 586 l 190 582 l 178 578 l 167 574 l 158 569 l 147 567 l 135 564 l 129 563 l 121 561 l 113 558 l 103 561 l 93 565 l 88 568 l 81 571 l 75 571 l 72 571 l 68 568 l 63 565 l 61 561 l 61 553 l 63 547 l 68 539 l 71 535 l 75 529 l 82 521 l 90 515 l 100 510 l 107 508 l 118 507 l 131 507 l 140 507 l 151 508 l 157 510 l 165 514 l 175 517 l 185 519 l 193 522 l 203 526 l 210 529 l 221 532 l 232 535 l 243 538 l 254 540 l 261 542 l 272 543 l 279 546 l 282 535 l 285 522 l 288 513 l 290 503 l 293 489 l 296 478 l 299 467 l 301 457 l 304 451 l 306 440 l 299 439 l 290 436 l 278 432 l 265 426 l 256 422 l 247 419 l 238 417 l 231 413 l 217 408 l 207 406 l 194 400 l 186 396 l 176 393 l 167 390 l 157 388 l 149 385 l 139 382 l 129 378 l 118 374 l 110 371 l 99 369 l 90 368 l 83 368 l 71 369 l 65 371 l 54 375 l 49 378 l 40 375 l 36 374 l 29 368 l 28 364 l 26 360 l 28 346 l 33 338 l 39 328 l 44 321 l 51 314 l 60 310 l 69 306 l 81 301 l 88 299 l 94 299 l 103 299 l 111 301 l 119 306 l 126 308 l 138 314 l 146 318 l 154 321 l 163 324 l 169 328 l 179 331 l 190 335 l 200 338 l 206 339 l 213 342 l 225 346 l 233 350 l 243 356 l 254 360 l 260 363 l 271 367 l 279 369 l 290 374 l 301 378 l 314 382 l 318 372 l 322 361 l 325 351 l 328 339 l 331 329 l 332 322 l 336 310 l 338 301 l 339 293 l 342 281 l 344 271 l 346 261 l 347 250 l 349 240 l 350 228 l 350 217 l 351 208 l 353 197 l 354 188 l 356 176 l 358 163 l 361 157 l 364 146 l 367 136 l 369 128 l 374 119 l 378 113 l 385 106 l 388 100 l 392 94 l 397 89 l 400 86 l 404 85 l 414 85 l 424 86 l 432 92 l 439 99 l 443 106 l 447 114 l 447 124 l 446 136 l 444 149 l 442 161 l 439 171 l 436 183 l 433 194 l 431 208 l 426 221 l 425 228 l 424 238 l 419 249 l 417 261 l 415 269 m 454 778 l 443 774 l 440 769 l 442 763 l 444 760 l 456 751 l 469 740 l 488 724 l 497 710 l 503 703 l 510 697 l 517 694 l 525 693 l 529 693 l 538 694 l 547 699 l 554 706 l 558 713 l 561 719 l 561 728 l 558 735 l 556 740 l 551 746 l 542 753 l 528 760 l 517 765 l 506 771 l 493 775 l 482 778 l 468 779 l 454 778 m 525 857 l 514 853 l 511 849 l 513 842 l 515 839 l 526 831 l 540 819 l 558 803 l 568 789 l 574 782 l 581 776 l 588 774 l 596 772 l 600 772 l 608 774 l 618 778 l 625 785 l 629 792 l 632 799 l 632 807 l 629 814 l 626 819 l 622 825 l 613 832 l 599 839 l 588 844 l 576 850 l 564 854 l 551 857 l 539 858 l 525 857 z "},"4":{"ha":722,"x_min":22,"x_max":696,"o":"m 483 368 l 540 426 l 589 482 l 632 540 l 649 561 l 688 614 l 696 632 l 696 644 l 689 651 l 681 653 l 667 651 l 654 643 l 622 606 l 576 549 l 563 535 l 546 514 l 508 474 l 465 433 l 411 386 l 358 342 l 285 286 l 215 239 l 185 221 l 163 218 l 135 221 l 111 228 l 94 228 l 83 219 l 78 206 l 81 193 l 97 176 l 146 144 l 171 131 l 194 129 l 217 146 l 283 196 l 383 275 l 446 332 l 483 368 m 53 547 l 33 547 l 24 538 l 22 524 l 39 508 l 75 489 l 117 464 l 150 440 l 174 435 l 196 442 l 208 456 l 207 478 l 192 501 l 153 526 l 106 540 l 53 547 m 124 754 l 104 754 l 93 747 l 92 733 l 100 719 l 122 710 l 147 700 l 175 681 l 190 663 l 221 644 l 251 642 l 269 650 l 275 669 l 272 690 l 256 713 l 224 732 l 176 749 l 124 754 z "},"5":{"ha":722,"x_min":24,"x_max":697,"o":"m 511 810 l 500 806 l 497 801 l 499 794 l 501 792 l 513 783 l 526 772 l 544 756 l 554 742 l 560 735 l 567 729 l 574 726 l 582 725 l 586 725 l 594 726 l 604 731 l 611 738 l 615 744 l 618 751 l 618 760 l 615 767 l 613 772 l 608 778 l 599 785 l 585 792 l 574 797 l 563 803 l 550 807 l 538 810 l 525 811 l 511 810 m 440 731 l 429 726 l 426 722 l 428 715 l 431 713 l 442 704 l 456 693 l 474 676 l 483 663 l 489 656 l 496 650 l 503 647 l 511 646 l 515 646 l 524 647 l 533 651 l 540 658 l 544 665 l 547 672 l 547 681 l 544 688 l 542 693 l 538 699 l 528 706 l 514 713 l 503 718 l 492 724 l 479 728 l 468 731 l 454 732 l 440 731 m 125 754 l 106 754 l 94 747 l 93 733 l 101 719 l 124 710 l 149 700 l 176 681 l 192 663 l 222 644 l 253 642 l 271 650 l 276 669 l 274 690 l 257 713 l 225 732 l 178 749 l 125 754 m 54 547 l 35 547 l 25 538 l 24 524 l 40 508 l 76 489 l 118 464 l 151 440 l 175 435 l 197 442 l 210 456 l 208 478 l 193 501 l 154 526 l 107 540 l 54 547 m 485 368 l 542 426 l 590 482 l 633 540 l 650 561 l 689 614 l 697 632 l 697 644 l 690 651 l 682 653 l 668 651 l 656 643 l 624 606 l 578 549 l 564 535 l 547 514 l 510 474 l 467 433 l 413 386 l 360 342 l 286 286 l 217 239 l 186 221 l 164 218 l 136 221 l 113 228 l 96 228 l 85 219 l 79 206 l 82 193 l 99 176 l 147 144 l 172 131 l 196 129 l 218 146 l 285 196 l 385 275 l 447 332 l 485 368 z "},"6":{"ha":799,"x_min":21,"x_max":778,"o":"m 379 400 l 371 346 l 358 296 l 344 247 l 317 192 l 286 133 l 246 79 l 233 63 l 233 44 l 244 36 l 263 38 l 294 65 l 344 118 l 383 178 l 418 253 l 438 315 l 453 403 l 457 460 l 460 475 l 519 478 l 626 479 l 668 479 l 697 472 l 726 468 l 751 472 l 769 482 l 778 501 l 774 522 l 753 536 l 718 549 l 679 551 l 606 546 l 518 540 l 465 533 l 471 601 l 465 625 l 460 638 l 454 649 l 457 658 l 467 663 l 538 685 l 578 697 l 590 711 l 589 731 l 579 750 l 543 779 l 522 788 l 504 782 l 492 769 l 488 754 l 474 742 l 447 728 l 393 706 l 322 685 l 196 653 l 156 647 l 132 633 l 132 619 l 144 606 l 171 603 l 239 611 l 326 625 l 364 632 l 379 625 l 383 606 l 385 536 l 382 529 l 279 514 l 189 496 l 133 486 l 110 483 l 82 492 l 61 500 l 46 504 l 31 500 l 21 486 l 21 464 l 40 429 l 68 413 l 92 410 l 121 413 l 156 422 l 208 435 l 293 451 l 344 460 l 371 464 l 383 464 l 379 400 z "},"7":{"ha":833,"x_min":19,"x_max":803,"o":"m 696 760 l 685 756 l 682 751 l 683 744 l 686 742 l 697 733 l 711 722 l 729 706 l 739 692 l 744 685 l 751 679 l 758 676 l 767 675 l 771 675 l 779 676 l 789 681 l 796 688 l 800 694 l 803 701 l 803 710 l 800 717 l 797 722 l 793 728 l 783 735 l 769 742 l 758 747 l 747 753 l 735 757 l 722 760 l 710 761 l 696 760 m 625 681 l 614 676 l 611 672 l 613 665 l 615 663 l 626 654 l 640 643 l 658 626 l 668 613 l 674 606 l 681 600 l 688 597 l 696 596 l 700 596 l 708 597 l 718 601 l 725 608 l 729 615 l 732 622 l 732 631 l 729 638 l 726 643 l 722 649 l 713 656 l 699 663 l 688 668 l 676 674 l 664 678 l 653 681 l 639 682 l 625 681 m 378 400 l 369 346 l 357 296 l 343 247 l 315 192 l 285 133 l 244 79 l 232 63 l 232 44 l 243 36 l 261 38 l 293 65 l 343 118 l 382 178 l 417 253 l 436 315 l 451 403 l 456 460 l 458 475 l 518 478 l 625 479 l 667 479 l 696 472 l 725 468 l 750 472 l 768 482 l 776 501 l 772 522 l 751 536 l 717 549 l 678 551 l 604 546 l 517 540 l 464 533 l 469 601 l 464 625 l 458 638 l 451 649 l 456 658 l 465 663 l 536 685 l 576 697 l 589 711 l 588 731 l 578 750 l 542 779 l 521 788 l 503 782 l 490 769 l 486 754 l 472 742 l 446 728 l 393 707 l 321 685 l 194 653 l 154 647 l 131 633 l 131 619 l 143 606 l 169 603 l 238 611 l 325 625 l 363 632 l 378 625 l 382 606 l 383 536 l 381 529 l 278 514 l 188 496 l 132 486 l 108 483 l 81 492 l 60 500 l 44 504 l 29 500 l 19 486 l 19 464 l 39 429 l 67 413 l 90 410 l 119 413 l 154 422 l 207 435 l 292 451 l 343 460 l 369 464 l 382 464 l 378 400 z "},"8":{"ha":757,"x_min":22,"x_max":735,"o":"m 375 254 l 419 260 l 485 264 l 551 265 l 610 263 l 643 257 l 674 247 l 708 250 l 732 265 l 735 288 l 724 307 l 693 329 l 665 346 l 640 349 l 610 343 l 578 335 l 508 329 l 425 322 l 381 319 l 293 311 l 206 300 l 128 292 l 106 289 l 90 290 l 75 296 l 60 304 l 44 308 l 35 306 l 25 297 l 22 285 l 26 271 l 38 250 l 64 228 l 93 211 l 115 208 l 140 213 l 192 231 l 244 243 l 293 250 l 375 254 m 250 622 l 218 619 l 176 624 l 163 632 l 147 632 l 138 621 l 136 607 l 146 582 l 176 560 l 211 554 l 265 557 l 322 567 l 413 574 l 508 585 l 560 586 l 590 603 l 597 625 l 590 646 l 568 665 l 531 674 l 501 668 l 460 654 l 385 639 l 301 626 l 250 622 z "},"9":{"ha":604,"x_min":19,"x_max":589,"o":"m 140 381 l 140 394 l 144 447 l 186 451 l 253 463 l 358 489 l 442 504 l 500 515 l 525 536 l 533 557 l 517 581 l 482 593 l 439 594 l 410 582 l 363 558 l 308 539 l 244 522 l 192 517 l 146 517 l 144 535 l 143 663 l 146 688 l 158 704 l 161 721 l 153 742 l 126 767 l 82 790 l 60 799 l 38 796 l 21 782 l 19 764 l 31 747 l 49 732 l 64 713 l 67 686 l 69 407 l 69 376 l 69 286 l 75 226 l 89 186 l 121 156 l 164 133 l 246 126 l 365 126 l 429 133 l 506 139 l 558 149 l 583 168 l 589 192 l 579 214 l 554 224 l 524 222 l 481 215 l 394 203 l 281 193 l 200 193 l 174 206 l 151 228 l 143 250 l 140 381 z "},"n":{"ha":697,"x_min":-1,"x_max":693,"o":"m -1 0 l 693 0 l 693 694 l -1 694 l -1 0 m 13 14 l 13 681 l 679 681 l 679 14 l 13 14 z "}," ":{"ha":833,"x_min":0,"x_max":0,"o":""},"!":{"ha":674,"x_min":28,"x_max":647,"o":"m 42 715 l 36 711 l 29 701 l 28 686 l 31 667 l 36 654 l 44 644 l 54 633 l 61 626 l 72 622 l 88 617 l 100 617 l 114 618 l 122 622 l 129 629 l 138 636 l 154 647 l 197 657 l 247 663 l 301 668 l 344 671 l 382 676 l 419 679 l 468 683 l 508 686 l 515 685 l 524 679 l 528 671 l 528 663 l 521 653 l 518 647 l 508 636 l 496 622 l 483 611 l 474 600 l 467 594 l 460 588 l 447 576 l 436 564 l 426 557 l 417 549 l 403 535 l 393 532 l 385 531 l 372 532 l 360 543 l 350 551 l 343 557 l 332 563 l 322 568 l 311 569 l 300 569 l 292 568 l 282 564 l 276 557 l 274 549 l 272 540 l 274 533 l 276 524 l 282 515 l 289 504 l 290 496 l 292 479 l 292 468 l 292 450 l 292 432 l 292 407 l 290 386 l 288 363 l 286 344 l 283 324 l 281 307 l 276 290 l 272 276 l 261 244 l 253 225 l 242 204 l 229 185 l 219 168 l 204 149 l 188 125 l 167 104 l 160 97 l 153 90 l 143 85 l 138 79 l 131 74 l 124 68 l 118 63 l 115 58 l 114 53 l 121 51 l 129 51 l 138 51 l 144 53 l 154 56 l 161 60 l 168 63 l 176 68 l 188 72 l 196 78 l 203 82 l 210 88 l 232 104 l 249 117 l 265 135 l 275 146 l 290 163 l 301 181 l 311 199 l 324 221 l 332 239 l 340 260 l 346 276 l 354 306 l 358 331 l 360 350 l 361 371 l 361 388 l 363 407 l 363 426 l 364 436 l 365 443 l 369 450 l 376 458 l 385 464 l 394 471 l 407 481 l 418 489 l 432 499 l 442 506 l 451 514 l 465 525 l 479 536 l 496 550 l 510 561 l 518 568 l 533 579 l 547 593 l 563 604 l 572 613 l 583 621 l 601 635 l 618 650 l 626 657 l 635 661 l 642 669 l 646 678 l 647 688 l 646 699 l 643 711 l 638 719 l 628 725 l 619 732 l 608 740 l 597 743 l 588 743 l 575 742 l 567 740 l 556 736 l 547 733 l 517 731 l 461 729 l 379 725 l 292 717 l 229 713 l 176 708 l 122 707 l 114 706 l 100 706 l 89 706 l 79 711 l 71 715 l 58 717 l 50 717 l 42 715 z "},"\"":{"ha":674,"x_min":28,"x_max":649,"o":"m 335 707 l 332 700 l 331 690 l 333 682 l 336 675 l 344 665 l 349 650 l 346 632 l 344 614 l 324 572 l 308 538 l 228 524 l 135 510 l 119 514 l 108 517 l 97 521 l 90 522 l 81 521 l 74 515 l 71 510 l 65 504 l 64 496 l 64 488 l 65 479 l 71 468 l 78 457 l 88 444 l 97 438 l 106 432 l 114 429 l 125 429 l 139 431 l 242 457 l 256 460 l 268 463 l 265 447 l 257 436 l 253 426 l 249 415 l 242 400 l 228 376 l 214 351 l 194 321 l 172 292 l 149 264 l 125 238 l 111 221 l 101 211 l 92 199 l 81 188 l 72 178 l 63 168 l 50 157 l 42 150 l 33 143 l 28 133 l 28 122 l 29 117 l 39 115 l 49 115 l 60 118 l 74 122 l 85 126 l 99 135 l 110 143 l 119 149 l 135 157 l 146 167 l 153 174 l 160 181 l 179 197 l 193 214 l 213 232 l 229 256 l 247 279 l 267 304 l 283 326 l 301 356 l 317 381 l 336 418 l 358 458 l 367 469 l 374 481 l 519 489 l 536 488 l 544 485 l 551 479 l 556 474 l 558 464 l 556 453 l 550 431 l 543 400 l 532 368 l 524 333 l 511 297 l 499 267 l 469 210 l 444 165 l 435 156 l 424 150 l 414 147 l 400 147 l 388 150 l 378 154 l 367 160 l 358 164 l 349 168 l 335 174 l 322 176 l 310 176 l 301 174 l 296 164 l 296 154 l 300 146 l 306 136 l 311 133 l 322 124 l 329 117 l 342 111 l 351 101 l 358 92 l 364 82 l 372 69 l 379 57 l 389 49 l 400 43 l 414 42 l 426 43 l 436 47 l 444 54 l 453 61 l 471 79 l 501 117 l 528 161 l 551 208 l 572 251 l 606 344 l 632 436 l 638 447 l 644 460 l 647 472 l 649 483 l 649 492 l 647 504 l 646 513 l 644 525 l 640 533 l 636 543 l 631 547 l 625 554 l 617 558 l 611 563 l 604 565 l 596 568 l 588 568 l 575 568 l 560 568 l 503 563 l 410 553 l 417 569 l 424 585 l 444 635 l 450 646 l 451 654 l 450 667 l 444 679 l 435 689 l 424 697 l 414 703 l 403 707 l 392 714 l 378 717 l 364 721 l 353 719 l 344 717 l 339 713 l 335 707 z "},"#":{"ha":778,"x_min":24,"x_max":749,"o":"m 331 707 l 328 700 l 326 690 l 329 682 l 332 675 l 340 665 l 344 650 l 342 632 l 340 614 l 319 572 l 304 538 l 224 524 l 131 510 l 115 514 l 104 517 l 93 521 l 86 522 l 76 521 l 69 515 l 67 510 l 61 504 l 60 496 l 60 488 l 61 479 l 67 468 l 74 457 l 83 444 l 93 438 l 101 432 l 110 429 l 121 429 l 135 431 l 238 457 l 251 460 l 264 463 l 261 447 l 253 436 l 249 426 l 244 415 l 238 400 l 224 376 l 210 351 l 188 321 l 169 294 l 144 264 l 121 238 l 107 221 l 97 211 l 88 199 l 76 188 l 68 178 l 58 168 l 46 157 l 38 150 l 29 143 l 24 133 l 24 122 l 25 117 l 35 115 l 44 115 l 56 118 l 69 122 l 81 126 l 94 135 l 106 143 l 115 149 l 131 157 l 142 167 l 149 175 l 156 182 l 175 197 l 189 214 l 208 232 l 225 256 l 243 279 l 263 304 l 282 328 l 297 356 l 313 381 l 332 418 l 354 458 l 363 469 l 369 481 l 515 489 l 532 488 l 540 485 l 547 479 l 551 474 l 554 464 l 551 453 l 546 431 l 539 400 l 528 368 l 519 333 l 504 299 l 492 267 l 465 210 l 440 165 l 431 156 l 419 150 l 410 147 l 396 147 l 383 150 l 374 154 l 363 160 l 354 164 l 344 168 l 331 174 l 318 176 l 306 176 l 297 174 l 292 164 l 292 154 l 296 146 l 301 136 l 307 133 l 318 124 l 325 117 l 338 111 l 347 101 l 354 92 l 360 82 l 368 69 l 375 57 l 385 49 l 396 43 l 410 42 l 422 43 l 432 47 l 440 54 l 449 61 l 467 79 l 497 117 l 524 161 l 547 208 l 568 251 l 601 344 l 628 436 l 633 447 l 640 460 l 643 472 l 644 483 l 644 492 l 643 504 l 642 513 l 640 525 l 636 533 l 632 543 l 626 547 l 621 554 l 613 558 l 607 563 l 600 565 l 592 568 l 583 568 l 571 568 l 556 568 l 499 563 l 406 553 l 413 569 l 419 585 l 440 635 l 446 646 l 447 654 l 446 667 l 440 679 l 431 689 l 419 697 l 410 703 l 399 707 l 388 714 l 374 717 l 360 721 l 349 719 l 340 717 l 335 713 l 331 707 m 571 672 l 560 668 l 557 664 l 558 657 l 561 654 l 572 646 l 586 635 l 604 618 l 614 604 l 619 597 l 626 592 l 633 589 l 642 588 l 646 588 l 654 589 l 664 593 l 671 600 l 675 607 l 678 614 l 678 622 l 675 629 l 672 635 l 668 640 l 658 647 l 644 654 l 633 660 l 622 665 l 610 669 l 599 672 l 585 674 l 571 672 m 642 751 l 631 747 l 628 743 l 629 736 l 632 733 l 643 725 l 657 714 l 675 697 l 685 683 l 690 676 l 697 671 l 704 668 l 713 667 l 717 667 l 725 668 l 735 672 l 742 679 l 746 686 l 749 693 l 749 701 l 746 708 l 743 714 l 739 719 l 729 726 l 715 733 l 704 739 l 693 744 l 681 749 l 668 751 l 656 753 l 642 751 z "},"$":{"ha":729,"x_min":25,"x_max":701,"o":"m 517 488 l 579 490 l 617 485 l 682 485 l 694 494 l 701 510 l 696 525 l 685 539 l 668 549 l 649 556 l 597 553 l 524 551 l 524 635 l 531 651 l 536 674 l 524 700 l 494 725 l 463 729 l 438 722 l 431 710 l 433 696 l 453 681 l 457 664 l 460 581 l 457 549 l 435 542 l 301 529 l 282 529 l 276 597 l 283 619 l 282 644 l 250 664 l 215 674 l 203 671 l 190 668 l 183 661 l 179 649 l 186 636 l 196 629 l 215 613 l 218 588 l 218 524 l 176 514 l 119 504 l 76 504 l 64 515 l 57 522 l 44 524 l 35 519 l 28 514 l 25 504 l 25 492 l 33 478 l 51 456 l 76 433 l 106 436 l 150 453 l 186 460 l 225 463 l 222 360 l 228 331 l 244 308 l 272 308 l 279 318 l 286 347 l 292 431 l 292 472 l 335 479 l 394 485 l 447 488 l 447 403 l 432 333 l 411 278 l 389 228 l 363 183 l 318 121 l 299 90 l 296 82 l 296 71 l 308 67 l 317 72 l 344 90 l 401 147 l 446 208 l 478 274 l 494 317 l 508 365 l 517 431 l 517 488 z "},"%":{"ha":826,"x_min":25,"x_max":781,"o":"m 517 488 l 579 490 l 617 485 l 682 485 l 694 494 l 701 510 l 696 525 l 685 539 l 668 549 l 649 556 l 597 553 l 524 551 l 524 635 l 531 651 l 536 674 l 524 700 l 494 725 l 463 729 l 438 722 l 431 710 l 433 696 l 453 681 l 457 664 l 460 581 l 457 549 l 435 542 l 301 529 l 282 529 l 276 597 l 283 619 l 282 644 l 250 664 l 215 674 l 203 671 l 190 668 l 183 661 l 179 649 l 186 636 l 196 629 l 215 613 l 218 588 l 218 524 l 176 514 l 119 504 l 76 504 l 64 515 l 57 522 l 44 524 l 35 519 l 28 514 l 25 504 l 25 492 l 33 478 l 51 456 l 76 433 l 106 436 l 150 453 l 186 460 l 225 463 l 222 360 l 228 331 l 244 308 l 272 308 l 279 318 l 286 347 l 292 431 l 292 472 l 335 479 l 394 485 l 447 488 l 447 403 l 432 333 l 411 278 l 389 228 l 363 183 l 318 121 l 299 90 l 296 82 l 296 71 l 308 67 l 317 72 l 344 90 l 401 147 l 446 208 l 478 274 l 494 317 l 508 365 l 517 431 l 517 488 m 674 760 l 663 756 l 660 751 l 661 744 l 664 742 l 675 733 l 689 722 l 707 706 l 717 692 l 722 685 l 729 679 l 736 676 l 744 675 l 749 675 l 757 676 l 767 681 l 774 688 l 778 694 l 781 701 l 781 710 l 778 717 l 775 722 l 771 728 l 761 735 l 747 742 l 736 747 l 725 753 l 713 757 l 700 760 l 688 761 l 674 760 m 603 681 l 592 676 l 589 672 l 590 665 l 593 663 l 604 654 l 618 643 l 636 626 l 646 613 l 651 606 l 658 600 l 665 597 l 674 596 l 678 596 l 686 597 l 696 601 l 703 608 l 707 615 l 710 622 l 710 631 l 707 638 l 704 643 l 700 649 l 690 656 l 676 663 l 665 668 l 654 674 l 642 678 l 631 681 l 617 682 l 603 681 z "},"&":{"ha":653,"x_min":39,"x_max":622,"o":"m 89 81 l 151 117 l 213 160 l 251 193 l 315 251 l 374 318 l 418 367 l 428 379 l 481 447 l 517 501 l 536 533 l 567 583 l 583 606 l 596 618 l 622 640 l 621 665 l 606 688 l 575 718 l 547 719 l 526 715 l 503 706 l 474 694 l 410 692 l 396 696 l 386 710 l 363 729 l 339 746 l 318 753 l 301 751 l 293 742 l 289 732 l 289 721 l 294 700 l 297 682 l 243 624 l 178 564 l 147 538 l 113 515 l 100 506 l 97 492 l 106 481 l 129 479 l 161 493 l 204 513 l 222 514 l 240 499 l 300 447 l 332 419 l 343 403 l 344 388 l 331 369 l 289 321 l 239 264 l 185 210 l 144 175 l 97 139 l 64 113 l 43 99 l 39 85 l 46 72 l 72 74 l 89 81 m 271 564 l 335 619 l 368 649 l 382 650 l 415 640 l 442 635 l 508 635 l 494 600 l 418 483 l 401 471 l 390 468 l 363 483 l 322 514 l 285 531 l 256 538 l 249 540 l 257 553 l 271 564 z "},"'":{"ha":764,"x_min":29,"x_max":738,"o":"m 560 813 l 549 808 l 546 804 l 547 797 l 550 794 l 561 786 l 575 775 l 593 758 l 603 744 l 608 738 l 615 732 l 622 729 l 631 728 l 635 728 l 643 729 l 653 733 l 660 740 l 664 747 l 667 754 l 667 763 l 664 769 l 661 775 l 657 781 l 647 788 l 633 794 l 622 800 l 611 806 l 599 810 l 588 813 l 574 814 l 560 813 m 631 892 l 619 888 l 617 883 l 618 876 l 621 874 l 632 865 l 646 854 l 664 838 l 674 824 l 679 817 l 686 811 l 693 808 l 701 807 l 706 807 l 714 808 l 724 813 l 731 819 l 735 826 l 738 833 l 738 842 l 735 849 l 732 854 l 728 860 l 718 867 l 704 874 l 693 879 l 682 885 l 669 889 l 657 892 l 644 893 l 631 892 m 261 564 l 325 619 l 358 649 l 372 650 l 406 640 l 432 635 l 499 635 l 485 600 l 408 483 l 392 471 l 381 468 l 353 483 l 313 514 l 275 531 l 246 538 l 239 540 l 247 553 l 261 564 m 79 81 l 142 117 l 203 160 l 242 193 l 306 251 l 364 318 l 408 367 l 418 379 l 471 447 l 507 501 l 526 533 l 557 583 l 574 606 l 586 618 l 613 640 l 611 665 l 596 688 l 565 718 l 538 719 l 517 715 l 493 706 l 464 694 l 400 692 l 386 696 l 376 710 l 353 729 l 329 746 l 308 753 l 292 751 l 283 742 l 279 732 l 279 721 l 285 700 l 288 682 l 233 624 l 168 564 l 138 538 l 103 515 l 90 506 l 88 492 l 96 481 l 119 479 l 151 493 l 194 513 l 213 514 l 231 499 l 290 447 l 322 419 l 333 403 l 335 388 l 321 369 l 279 321 l 229 264 l 175 210 l 135 175 l 88 139 l 54 113 l 33 99 l 29 85 l 36 72 l 63 74 l 79 81 z "},"(":{"ha":792,"x_min":25,"x_max":765,"o":"m 361 378 l 350 318 l 329 246 l 308 194 l 285 147 l 246 86 l 225 60 l 215 42 l 214 24 l 224 17 l 238 18 l 268 38 l 306 82 l 351 146 l 394 229 l 421 304 l 435 379 l 446 457 l 447 478 l 460 486 l 486 488 l 579 488 l 664 483 l 696 474 l 726 472 l 747 481 l 765 501 l 760 526 l 732 551 l 689 560 l 663 556 l 532 550 l 476 546 l 464 551 l 453 572 l 453 631 l 457 661 l 463 669 l 471 688 l 468 708 l 446 738 l 403 764 l 372 769 l 361 767 l 347 756 l 343 739 l 350 721 l 368 707 l 383 686 l 385 646 l 381 572 l 375 546 l 360 535 l 319 525 l 275 519 l 165 510 l 86 507 l 68 515 l 51 522 l 36 518 l 25 506 l 26 486 l 38 474 l 58 453 l 86 438 l 113 432 l 146 435 l 193 447 l 246 463 l 319 469 l 365 467 l 361 378 z "},")":{"ha":806,"x_min":22,"x_max":782,"o":"m 544 528 l 588 464 l 644 374 l 692 290 l 710 267 l 729 258 l 756 263 l 775 275 l 782 310 l 776 335 l 753 374 l 714 422 l 658 492 l 622 531 l 567 578 l 536 599 l 517 606 l 504 600 l 503 588 l 508 574 l 544 528 m 190 439 l 171 410 l 135 360 l 90 311 l 39 264 l 24 247 l 22 236 l 31 229 l 65 235 l 113 267 l 161 306 l 215 365 l 261 421 l 275 440 l 290 460 l 321 500 l 342 518 l 357 538 l 356 551 l 351 563 l 339 575 l 278 613 l 261 624 l 243 622 l 224 611 l 211 599 l 213 586 l 231 565 l 243 556 l 244 542 l 231 510 l 190 439 z "},"*":{"ha":806,"x_min":22,"x_max":782,"o":"m 190 439 l 171 410 l 135 360 l 90 311 l 39 264 l 24 247 l 22 236 l 31 229 l 65 235 l 113 267 l 161 306 l 215 365 l 261 421 l 275 440 l 290 460 l 321 500 l 342 518 l 357 538 l 356 551 l 351 563 l 339 575 l 278 613 l 261 624 l 243 622 l 224 611 l 211 599 l 213 586 l 231 565 l 243 556 l 244 542 l 231 510 l 190 439 m 544 528 l 588 464 l 644 374 l 692 290 l 710 267 l 729 258 l 756 263 l 775 275 l 782 310 l 776 335 l 753 374 l 714 422 l 658 492 l 622 531 l 567 578 l 536 599 l 517 606 l 504 600 l 503 588 l 508 574 l 544 528 m 585 679 l 574 675 l 571 671 l 572 664 l 575 661 l 586 653 l 600 642 l 618 625 l 628 611 l 633 604 l 640 599 l 647 596 l 656 594 l 660 594 l 668 596 l 678 600 l 685 607 l 689 614 l 692 621 l 692 629 l 689 636 l 686 642 l 682 647 l 672 654 l 658 661 l 647 667 l 636 672 l 624 676 l 613 679 l 599 681 l 585 679 m 656 758 l 644 754 l 642 750 l 643 743 l 646 740 l 657 732 l 671 721 l 689 704 l 699 690 l 704 683 l 711 678 l 718 675 l 726 674 l 731 674 l 739 675 l 749 679 l 756 686 l 760 693 l 763 700 l 763 708 l 760 715 l 757 721 l 753 726 l 743 733 l 729 740 l 718 746 l 707 751 l 694 756 l 682 758 l 669 760 l 656 758 z "},"+":{"ha":806,"x_min":22,"x_max":782,"o":"m 190 439 l 171 410 l 135 360 l 90 311 l 39 264 l 24 247 l 22 236 l 31 229 l 65 235 l 113 267 l 161 306 l 215 365 l 261 421 l 275 440 l 290 460 l 321 500 l 342 518 l 357 538 l 356 551 l 351 563 l 339 575 l 278 613 l 261 624 l 243 622 l 224 611 l 211 599 l 213 586 l 231 565 l 243 556 l 244 542 l 231 510 l 190 439 m 544 528 l 588 464 l 644 374 l 692 290 l 710 267 l 729 258 l 756 263 l 775 275 l 782 310 l 776 335 l 753 374 l 714 422 l 658 492 l 622 531 l 567 578 l 536 599 l 517 606 l 504 600 l 503 588 l 508 574 l 544 528 m 697 722 q 649 701 669 722 q 628 653 628 681 q 649 603 628 624 q 697 582 669 582 q 747 603 726 582 q 767 653 767 624 q 747 701 767 681 q 697 722 726 722 m 697 697 q 743 653 743 697 q 697 604 743 604 q 650 653 653 604 q 697 697 654 697 z "},",":{"ha":736,"x_min":22,"x_max":715,"o":"m 161 578 l 138 576 l 117 572 l 90 569 l 83 571 l 75 578 l 63 588 l 50 589 l 39 589 l 35 588 l 28 583 l 22 572 l 22 561 l 25 554 l 31 544 l 38 532 l 44 525 l 51 517 l 57 508 l 65 500 l 74 494 l 85 492 l 92 492 l 100 493 l 106 497 l 113 501 l 119 506 l 126 513 l 135 517 l 157 521 l 182 525 l 211 528 l 243 532 l 351 544 l 417 551 l 482 557 l 500 558 l 521 560 l 540 561 l 550 565 l 560 561 l 567 560 l 574 560 l 581 558 l 586 554 l 589 544 l 589 539 l 582 532 l 575 524 l 574 524 l 567 513 l 560 503 l 543 483 l 521 457 l 488 424 l 453 389 l 428 364 l 411 346 l 394 328 l 381 314 l 364 325 l 347 336 l 332 346 l 319 354 l 304 361 l 292 368 l 285 371 l 276 374 l 268 376 l 257 378 l 260 365 l 263 357 l 269 346 l 272 342 l 279 332 l 288 325 l 296 314 l 304 307 l 324 294 l 336 286 l 349 278 l 360 268 l 371 258 l 376 251 l 385 243 l 392 235 l 400 225 l 407 218 l 415 210 l 422 199 l 433 189 l 446 179 l 456 172 l 469 163 l 481 154 l 490 154 l 501 154 l 510 161 l 517 167 l 519 176 l 521 188 l 518 196 l 513 208 l 506 218 l 493 226 l 485 236 l 471 246 l 465 251 l 451 264 l 440 271 l 432 281 l 422 289 l 429 297 l 439 307 l 451 318 l 469 335 l 503 364 l 533 390 l 568 421 l 594 442 l 615 458 l 635 475 l 664 497 l 689 517 l 703 526 l 710 532 l 714 538 l 715 549 l 714 560 l 707 572 l 700 583 l 689 594 l 678 606 l 667 617 l 656 622 l 644 626 l 631 629 l 610 629 l 586 629 l 558 626 l 533 622 l 494 618 l 451 615 l 422 611 l 381 606 l 335 600 l 294 594 l 246 589 l 199 583 l 161 578 z "},"-":{"ha":771,"x_min":19,"x_max":753,"o":"m 486 165 l 474 207 l 429 329 l 396 431 l 368 513 l 365 535 l 392 543 l 457 567 l 518 585 l 560 599 l 583 606 l 603 608 l 614 601 l 613 589 l 593 567 l 538 507 l 514 483 l 489 464 l 486 449 l 496 433 l 522 435 l 563 458 l 626 500 l 693 557 l 719 567 l 749 581 l 753 599 l 750 618 l 738 636 l 682 679 l 660 685 l 633 679 l 589 665 l 522 643 l 418 614 l 343 594 l 333 614 l 318 646 l 313 675 l 314 703 l 311 722 l 296 743 l 271 760 l 239 775 l 207 778 l 183 775 l 164 765 l 160 750 l 168 733 l 199 713 l 222 693 l 239 665 l 254 632 l 263 604 l 267 569 l 188 533 l 117 504 l 86 497 l 65 504 l 44 511 l 26 508 l 21 497 l 19 481 l 33 463 l 69 432 l 93 419 l 118 422 l 138 438 l 201 467 l 286 500 l 294 500 l 319 425 l 356 326 l 397 203 l 414 161 l 424 126 l 443 103 l 463 90 l 485 94 l 493 117 l 493 144 l 486 165 z "},".":{"ha":667,"x_min":19,"x_max":642,"o":"m 493 413 l 465 369 l 433 325 l 388 268 l 324 199 l 231 118 l 188 88 l 179 69 l 188 56 l 215 57 l 274 94 l 336 138 l 411 203 l 475 268 l 522 332 l 561 396 l 581 431 l 597 471 l 615 488 l 636 501 l 642 519 l 638 539 l 604 574 l 581 586 l 532 583 l 467 575 l 321 558 l 203 539 l 107 519 l 79 521 l 54 535 l 38 535 l 22 521 l 19 501 l 36 478 l 67 456 l 100 444 l 132 450 l 190 467 l 232 476 l 351 503 l 458 518 l 507 524 l 522 518 l 525 503 l 515 471 l 493 413 m 254 706 l 232 703 l 203 706 l 181 714 l 151 714 l 138 701 l 138 683 l 168 657 l 201 640 l 257 642 l 314 650 l 371 663 l 421 671 l 468 671 l 506 678 l 531 694 l 528 718 l 506 738 l 451 750 l 421 746 l 390 729 l 346 719 l 254 706 z "},"/":{"ha":694,"x_min":21,"x_max":674,"o":"m 438 343 l 404 297 l 353 235 l 306 182 l 242 126 l 218 101 l 215 90 l 224 81 l 243 83 l 278 103 l 333 142 l 404 204 l 456 264 l 507 338 l 543 393 l 582 474 l 613 554 l 633 607 l 639 628 l 644 635 l 665 647 l 674 671 l 665 697 l 619 738 l 594 760 l 572 760 l 546 753 l 528 744 l 493 743 l 433 740 l 231 721 l 133 715 l 111 715 l 82 733 l 54 738 l 33 733 l 21 724 l 21 706 l 31 694 l 47 671 l 60 650 l 68 483 l 72 436 l 85 418 l 114 408 l 125 413 l 140 426 l 147 446 l 144 529 l 135 640 l 140 651 l 296 668 l 438 683 l 533 686 l 563 683 l 565 654 l 538 563 l 482 421 l 438 343 z "},":":{"ha":660,"x_min":19,"x_max":632,"o":"m 454 724 l 443 719 l 440 715 l 442 708 l 444 706 l 456 697 l 469 686 l 488 669 l 497 656 l 503 649 l 510 643 l 517 640 l 525 639 l 529 639 l 538 640 l 547 644 l 554 651 l 558 658 l 561 665 l 561 674 l 558 681 l 556 686 l 551 692 l 542 699 l 528 706 l 517 711 l 506 717 l 493 721 l 482 724 l 468 725 l 454 724 m 525 803 l 514 799 l 511 794 l 513 788 l 515 785 l 526 776 l 540 765 l 558 749 l 568 735 l 574 728 l 581 722 l 588 719 l 596 718 l 600 718 l 608 719 l 618 724 l 625 731 l 629 738 l 632 744 l 632 753 l 629 760 l 626 765 l 622 771 l 613 778 l 599 785 l 588 790 l 576 796 l 564 800 l 551 803 l 539 804 l 525 803 m 140 381 l 140 394 l 144 447 l 186 451 l 253 463 l 358 489 l 442 504 l 500 515 l 525 536 l 533 557 l 517 581 l 482 593 l 439 594 l 410 582 l 363 558 l 308 539 l 244 522 l 192 517 l 146 517 l 144 535 l 143 663 l 146 688 l 158 704 l 161 721 l 153 742 l 126 767 l 82 790 l 60 799 l 38 796 l 21 782 l 19 764 l 31 747 l 49 732 l 64 713 l 67 686 l 69 407 l 69 376 l 69 286 l 75 226 l 89 186 l 121 156 l 164 133 l 246 126 l 365 126 l 429 133 l 506 139 l 558 149 l 583 168 l 589 192 l 579 214 l 554 224 l 524 222 l 481 215 l 394 203 l 281 193 l 200 193 l 174 206 l 151 228 l 143 250 l 140 381 z "},";":{"ha":625,"x_min":19,"x_max":589,"o":"m 519 754 q 565 710 565 754 q 519 661 565 661 q 472 710 475 661 q 519 754 476 754 m 519 779 q 471 758 492 779 q 450 710 450 738 q 471 660 450 681 q 519 639 492 639 q 569 660 549 639 q 589 710 589 681 q 569 758 589 738 q 519 779 549 779 m 140 381 l 140 394 l 144 447 l 186 451 l 253 463 l 358 489 l 442 504 l 500 515 l 525 536 l 533 557 l 517 581 l 482 593 l 439 594 l 410 582 l 363 558 l 308 539 l 244 522 l 192 517 l 146 517 l 144 535 l 143 663 l 146 688 l 158 704 l 161 721 l 153 742 l 126 767 l 82 790 l 60 799 l 38 796 l 21 782 l 19 764 l 31 747 l 49 732 l 64 713 l 67 686 l 69 407 l 69 376 l 69 286 l 75 226 l 89 186 l 121 156 l 164 133 l 246 126 l 365 126 l 429 133 l 506 139 l 558 149 l 583 168 l 589 192 l 579 214 l 554 224 l 524 222 l 481 215 l 394 203 l 281 193 l 200 193 l 174 206 l 151 228 l 143 250 l 140 381 z "},"<":{"ha":444,"x_min":50,"x_max":419,"o":"m 128 260 l 96 276 l 72 282 l 53 276 l 50 261 l 54 244 l 74 225 l 101 207 l 138 188 l 179 169 l 231 156 l 286 143 l 338 135 l 375 135 l 407 149 l 419 168 l 414 190 l 397 204 l 369 217 l 340 224 l 306 225 l 274 225 l 246 228 l 207 236 l 163 247 l 128 260 m 114 793 l 103 799 l 86 803 l 72 800 l 67 790 l 67 774 l 76 757 l 96 739 l 126 718 l 169 697 l 224 676 l 272 665 l 313 658 l 338 664 l 356 679 l 358 707 l 347 729 l 335 739 l 313 744 l 268 749 l 226 756 l 178 765 l 149 775 l 114 793 m 115 547 l 97 553 l 85 554 l 71 550 l 68 540 l 68 524 l 78 507 l 97 490 l 126 475 l 172 456 l 224 439 l 269 428 l 306 428 l 326 435 l 340 451 l 342 471 l 333 490 l 322 499 l 301 510 l 265 519 l 219 525 l 176 529 l 144 538 l 115 547 z "},"=":{"ha":472,"x_min":25,"x_max":449,"o":"m 356 346 l 346 303 l 325 253 l 299 199 l 268 147 l 226 94 l 197 58 l 193 44 l 194 36 l 203 32 l 215 35 l 240 51 l 286 92 l 329 143 l 375 211 l 410 286 l 426 346 l 429 385 l 432 439 l 435 575 l 438 681 l 439 696 l 446 710 l 449 729 l 439 751 l 421 768 l 389 788 l 369 794 l 349 793 l 331 788 l 321 774 l 322 758 l 336 746 l 353 731 l 363 714 l 367 639 l 365 489 l 361 399 l 356 346 m 85 756 l 67 763 l 50 765 l 36 763 l 25 753 l 26 736 l 36 719 l 57 700 l 65 675 l 67 603 l 65 511 l 57 457 l 53 426 l 60 407 l 71 393 l 92 383 l 108 388 l 126 413 l 136 457 l 135 588 l 133 676 l 131 700 l 125 722 l 107 743 l 85 756 z "},"?":{"ha":715,"x_min":22,"x_max":689,"o":"m 344 92 l 394 133 l 447 179 l 507 243 l 557 315 l 585 361 l 611 414 l 636 472 l 658 533 l 669 549 l 686 568 l 689 589 l 685 613 l 650 638 l 625 657 l 599 657 l 585 651 l 572 643 l 556 638 l 392 635 l 389 656 l 389 685 l 393 703 l 400 714 l 400 729 l 393 749 l 374 764 l 332 783 l 311 790 l 292 789 l 278 778 l 272 767 l 271 753 l 285 735 l 301 721 l 314 704 l 318 675 l 318 628 l 253 619 l 147 606 l 106 604 l 79 615 l 54 622 l 38 619 l 28 610 l 22 594 l 26 579 l 43 568 l 64 551 l 69 524 l 75 468 l 79 415 l 85 382 l 94 367 l 111 360 l 126 360 l 139 368 l 150 381 l 156 414 l 149 489 l 146 511 l 144 528 l 156 542 l 208 554 l 335 569 l 443 578 l 547 581 l 582 581 l 588 574 l 588 551 l 574 507 l 544 438 l 508 371 l 488 333 l 464 292 l 432 250 l 400 214 l 358 172 l 314 132 l 290 114 l 267 94 l 249 82 l 238 69 l 232 57 l 233 46 l 243 39 l 264 40 l 299 64 l 344 92 z "},"@":{"ha":646,"x_min":26,"x_max":619,"o":"m 300 761 l 288 767 l 272 771 l 251 765 l 244 750 l 243 717 l 243 683 l 221 651 l 203 628 l 168 589 l 121 542 l 67 486 l 32 454 l 26 442 l 31 428 l 44 425 l 82 440 l 138 478 l 199 525 l 264 589 l 308 642 l 335 664 l 371 661 l 417 665 l 446 675 l 496 686 l 506 682 l 508 661 l 500 639 l 460 567 l 426 507 l 386 446 l 338 383 l 290 325 l 243 267 l 211 231 l 175 196 l 140 164 l 107 138 l 81 119 l 65 107 l 51 94 l 47 85 l 47 74 l 57 67 l 72 65 l 97 71 l 149 104 l 210 149 l 257 190 l 294 226 l 335 269 l 393 338 l 450 413 l 494 479 l 543 557 l 581 619 l 606 658 l 619 675 l 617 697 l 599 725 l 574 753 l 553 764 l 525 763 l 497 757 l 468 747 l 424 732 l 376 717 l 349 717 l 336 725 l 321 742 l 300 761 z "},"A":{"ha":799,"x_min":28,"x_max":774,"o":"m 596 850 l 585 846 l 582 842 l 583 835 l 586 832 l 597 824 l 611 813 l 629 796 l 639 782 l 644 775 l 651 769 l 658 767 l 667 765 l 671 765 l 679 767 l 689 771 l 696 778 l 700 785 l 703 792 l 703 800 l 700 807 l 697 813 l 693 818 l 683 825 l 669 832 l 658 838 l 647 843 l 635 847 l 624 850 l 610 851 l 596 850 m 667 929 l 656 925 l 653 921 l 654 914 l 657 911 l 668 903 l 682 892 l 700 875 l 710 861 l 715 854 l 722 849 l 729 846 l 738 844 l 742 844 l 750 846 l 760 850 l 767 857 l 771 864 l 774 871 l 774 879 l 771 886 l 768 892 l 764 897 l 754 904 l 740 911 l 729 917 l 718 922 l 706 926 l 693 929 l 681 931 l 667 929 m 301 761 l 289 767 l 274 771 l 253 765 l 246 750 l 244 717 l 244 683 l 222 651 l 204 628 l 169 589 l 122 542 l 68 486 l 33 454 l 28 442 l 32 428 l 46 425 l 83 440 l 139 478 l 200 525 l 265 589 l 310 642 l 336 664 l 372 661 l 418 665 l 447 675 l 497 686 l 507 682 l 510 661 l 501 639 l 461 567 l 428 507 l 388 446 l 339 383 l 292 325 l 244 267 l 213 231 l 176 196 l 142 164 l 108 138 l 82 119 l 67 107 l 53 94 l 49 85 l 49 74 l 58 67 l 74 65 l 99 71 l 150 104 l 211 149 l 258 190 l 296 226 l 336 269 l 394 338 l 451 413 l 496 479 l 544 557 l 582 619 l 607 658 l 621 675 l 618 697 l 600 725 l 575 753 l 554 764 l 526 763 l 499 757 l 469 747 l 425 732 l 378 717 l 350 717 l 338 725 l 322 742 l 301 761 z "},"B":{"ha":736,"x_min":24,"x_max":713,"o":"m 344 322 l 371 347 l 388 367 l 403 369 l 418 365 l 467 328 l 489 308 l 514 289 l 549 261 l 586 225 l 618 189 l 644 160 l 665 149 l 690 149 l 707 161 l 713 182 l 706 215 l 692 239 l 665 265 l 631 293 l 593 321 l 551 344 l 501 379 l 450 408 l 433 418 l 438 431 l 443 443 l 464 472 l 492 513 l 508 540 l 532 572 l 546 594 l 561 608 l 582 619 l 590 635 l 589 654 l 576 676 l 560 696 l 540 711 l 525 719 l 486 719 l 471 717 l 451 708 l 432 700 l 383 689 l 282 664 l 219 650 l 197 650 l 175 660 l 150 668 l 133 674 l 124 671 l 117 663 l 115 643 l 124 624 l 147 597 l 167 581 l 186 575 l 208 575 l 250 588 l 301 606 l 354 619 l 401 635 l 439 644 l 458 643 l 464 631 l 456 608 l 435 565 l 410 521 l 392 493 l 358 446 l 310 382 l 256 325 l 210 282 l 160 242 l 113 210 l 47 167 l 28 151 l 24 139 l 28 126 l 42 124 l 69 133 l 113 156 l 156 174 l 208 206 l 263 246 l 301 279 l 344 322 z "},"C":{"ha":785,"x_min":22,"x_max":764,"o":"m 657 851 l 646 847 l 643 843 l 644 836 l 647 833 l 658 825 l 672 814 l 690 797 l 700 783 l 706 776 l 713 771 l 719 768 l 728 767 l 732 767 l 740 768 l 750 772 l 757 779 l 761 786 l 764 793 l 764 801 l 761 808 l 758 814 l 754 819 l 744 826 l 731 833 l 719 839 l 708 844 l 696 849 l 683 851 l 671 853 l 657 851 m 586 772 l 575 768 l 572 764 l 574 757 l 576 754 l 588 746 l 601 735 l 619 718 l 629 704 l 635 697 l 642 692 l 649 689 l 657 688 l 661 688 l 669 689 l 679 693 l 686 700 l 690 707 l 693 714 l 693 722 l 690 729 l 688 735 l 683 740 l 674 747 l 660 754 l 649 760 l 638 765 l 625 769 l 614 772 l 600 774 l 586 772 m 343 322 l 369 347 l 386 367 l 401 369 l 417 365 l 465 328 l 488 308 l 513 289 l 547 261 l 585 225 l 617 189 l 643 160 l 664 149 l 689 149 l 706 161 l 711 182 l 704 215 l 690 239 l 664 265 l 629 293 l 592 321 l 550 344 l 500 379 l 449 408 l 432 418 l 436 431 l 442 443 l 463 472 l 490 513 l 507 540 l 531 572 l 544 594 l 560 608 l 581 619 l 589 635 l 588 654 l 575 676 l 558 696 l 539 711 l 524 719 l 485 719 l 469 717 l 450 708 l 431 700 l 382 689 l 281 664 l 218 650 l 196 650 l 174 660 l 149 668 l 132 674 l 122 671 l 115 663 l 114 643 l 122 624 l 146 597 l 165 581 l 185 575 l 207 575 l 249 588 l 300 606 l 353 619 l 400 635 l 438 644 l 457 643 l 463 631 l 454 608 l 433 565 l 408 521 l 390 493 l 357 446 l 308 382 l 254 325 l 208 282 l 158 242 l 111 210 l 46 167 l 26 151 l 22 139 l 26 126 l 40 124 l 68 133 l 111 156 l 154 174 l 207 206 l 261 246 l 300 279 l 343 322 z "},"D":{"ha":729,"x_min":21,"x_max":714,"o":"m 463 254 l 518 331 l 585 431 l 640 519 l 672 576 l 685 596 l 704 615 l 714 636 l 710 660 l 689 676 l 647 710 l 629 718 l 596 722 l 579 713 l 575 694 l 582 674 l 604 657 l 608 640 l 596 607 l 540 499 l 472 392 l 415 310 l 363 250 l 319 201 l 282 165 l 222 107 l 200 82 l 197 68 l 206 60 l 235 64 l 282 92 l 332 132 l 393 189 l 463 254 m 324 700 l 303 710 l 282 706 l 275 690 l 278 672 l 290 653 l 303 629 l 324 594 l 336 563 l 354 543 l 379 538 l 397 547 l 411 568 l 408 594 l 400 624 l 383 649 l 356 678 l 324 700 m 67 653 l 51 660 l 31 657 l 21 643 l 31 619 l 46 600 l 64 568 l 86 535 l 104 499 l 128 476 l 149 467 l 169 476 l 189 494 l 192 518 l 181 551 l 151 583 l 121 608 l 67 653 z "},"E":{"ha":799,"x_min":21,"x_max":772,"o":"m 665 915 l 654 911 l 651 907 l 653 900 l 656 897 l 667 889 l 681 878 l 699 861 l 708 847 l 714 840 l 721 835 l 728 832 l 736 831 l 740 831 l 749 832 l 758 836 l 765 843 l 769 850 l 772 857 l 772 865 l 769 872 l 767 878 l 763 883 l 753 890 l 739 897 l 728 903 l 717 908 l 704 913 l 692 915 l 679 917 l 665 915 m 594 836 l 583 832 l 581 828 l 582 821 l 585 818 l 596 810 l 610 799 l 628 782 l 638 768 l 643 761 l 650 756 l 657 753 l 665 751 l 669 751 l 678 753 l 688 757 l 694 764 l 699 771 l 701 778 l 701 786 l 699 793 l 696 799 l 692 804 l 682 811 l 668 818 l 657 824 l 646 829 l 633 833 l 622 836 l 608 838 l 594 836 m 463 254 l 518 331 l 585 431 l 640 519 l 672 576 l 685 596 l 704 615 l 714 636 l 710 660 l 689 676 l 647 710 l 629 718 l 596 722 l 579 713 l 575 694 l 582 674 l 604 657 l 608 640 l 596 607 l 540 499 l 472 392 l 415 310 l 363 250 l 319 201 l 282 165 l 222 107 l 200 82 l 197 68 l 206 60 l 235 64 l 282 92 l 332 132 l 393 189 l 463 254 m 324 700 l 303 710 l 282 706 l 275 690 l 278 672 l 290 653 l 303 629 l 324 594 l 336 563 l 354 543 l 379 538 l 397 547 l 411 568 l 408 594 l 400 624 l 383 649 l 356 678 l 324 700 m 67 653 l 51 660 l 31 657 l 21 643 l 31 619 l 46 600 l 64 568 l 86 535 l 104 499 l 128 476 l 149 467 l 169 476 l 189 494 l 192 518 l 181 551 l 151 583 l 121 608 l 67 653 z "},"F":{"ha":660,"x_min":26,"x_max":633,"o":"m 96 96 l 146 129 l 188 158 l 233 194 l 272 229 l 297 254 l 346 303 l 386 350 l 407 368 l 417 358 l 449 329 l 478 300 l 504 271 l 526 247 l 554 242 l 576 250 l 590 272 l 590 296 l 576 325 l 554 354 l 518 382 l 471 419 l 449 435 l 467 463 l 503 513 l 546 579 l 585 639 l 607 663 l 622 669 l 633 688 l 631 706 l 618 722 l 575 757 l 550 768 l 529 769 l 496 757 l 451 742 l 403 731 l 351 719 l 286 710 l 249 707 l 231 707 l 214 714 l 201 717 l 190 715 l 181 707 l 175 689 l 181 669 l 203 646 l 228 635 l 251 629 l 276 632 l 319 644 l 394 667 l 435 679 l 467 688 l 486 688 l 499 679 l 500 661 l 479 615 l 458 575 l 429 525 l 404 493 l 379 463 l 335 481 l 292 500 l 242 519 l 219 528 l 200 528 l 190 524 l 183 515 l 182 501 l 192 490 l 221 474 l 293 444 l 321 431 l 340 414 l 332 397 l 308 367 l 267 321 l 217 269 l 174 225 l 122 175 l 79 138 l 51 114 l 36 99 l 28 89 l 26 75 l 35 68 l 53 69 l 69 79 l 96 96 z "},"G":{"ha":708,"x_min":22,"x_max":686,"o":"m 263 190 l 225 153 l 196 131 l 175 111 l 167 93 l 171 88 l 185 83 l 201 88 l 244 110 l 296 146 l 363 208 l 419 268 l 497 365 l 571 476 l 613 544 l 651 606 l 669 619 l 686 638 l 681 669 l 660 697 l 639 719 l 614 733 l 592 733 l 575 725 l 557 717 l 488 708 l 358 692 l 150 665 l 96 658 l 79 660 l 63 672 l 51 679 l 39 678 l 28 669 l 22 658 l 24 640 l 40 614 l 64 594 l 85 583 l 104 581 l 128 588 l 157 599 l 250 621 l 392 643 l 486 654 l 553 658 l 571 658 l 579 650 l 581 636 l 564 604 l 503 503 l 447 415 l 372 313 l 310 242 l 263 190 z "},"H":{"ha":833,"x_min":25,"x_max":804,"o":"m 697 901 l 686 897 l 683 893 l 685 886 l 688 883 l 699 875 l 713 864 l 731 847 l 740 833 l 746 826 l 753 821 l 760 818 l 768 817 l 772 817 l 781 818 l 790 822 l 797 829 l 801 836 l 804 843 l 804 851 l 801 858 l 799 864 l 794 869 l 785 876 l 771 883 l 760 889 l 749 894 l 736 899 l 724 901 l 711 903 l 697 901 m 626 822 l 615 818 l 613 814 l 614 807 l 617 804 l 628 796 l 642 785 l 660 768 l 669 754 l 675 747 l 682 742 l 689 739 l 697 738 l 701 738 l 710 739 l 719 743 l 726 750 l 731 757 l 733 764 l 733 772 l 731 779 l 728 785 l 724 790 l 714 797 l 700 804 l 689 810 l 678 815 l 665 819 l 654 822 l 640 824 l 626 822 m 265 190 l 228 153 l 199 131 l 178 111 l 169 93 l 174 88 l 188 83 l 204 88 l 247 110 l 299 146 l 365 208 l 422 268 l 500 365 l 574 476 l 615 544 l 654 606 l 672 619 l 689 638 l 683 669 l 663 697 l 642 719 l 617 733 l 594 733 l 578 725 l 560 717 l 490 708 l 361 692 l 153 665 l 99 658 l 82 660 l 65 672 l 54 679 l 42 678 l 31 669 l 25 658 l 26 640 l 43 614 l 67 594 l 88 583 l 107 581 l 131 588 l 160 599 l 253 621 l 394 643 l 489 654 l 556 658 l 574 658 l 582 650 l 583 636 l 567 604 l 506 503 l 450 415 l 375 313 l 313 242 l 265 190 z "},"I":{"ha":799,"x_min":25,"x_max":774,"o":"m 704 849 q 750 804 750 849 q 704 756 750 756 q 657 804 660 756 q 704 849 661 849 m 704 874 q 656 853 676 874 q 635 804 635 832 q 656 754 635 775 q 704 733 676 733 q 753 754 733 733 q 774 804 774 775 q 753 853 774 832 q 704 874 733 874 m 265 190 l 228 153 l 199 131 l 178 111 l 169 93 l 174 88 l 188 83 l 204 88 l 247 110 l 299 146 l 365 208 l 422 268 l 500 365 l 574 476 l 615 544 l 654 606 l 672 619 l 686 640 l 683 669 l 663 697 l 642 719 l 617 733 l 594 733 l 578 725 l 560 717 l 490 708 l 361 692 l 153 665 l 99 658 l 82 660 l 65 672 l 54 679 l 42 678 l 31 669 l 25 658 l 26 640 l 43 614 l 67 594 l 88 583 l 107 581 l 131 588 l 160 599 l 253 621 l 394 643 l 489 654 l 556 658 l 574 658 l 582 650 l 583 636 l 567 604 l 506 503 l 450 415 l 375 313 l 313 242 l 265 190 z "},"J":{"ha":722,"x_min":21,"x_max":697,"o":"m 136 314 l 110 272 l 90 249 l 71 232 l 49 217 l 29 199 l 22 181 l 21 161 l 25 147 l 40 129 l 57 119 l 76 119 l 90 129 l 108 139 l 131 149 l 154 153 l 181 158 l 272 174 l 356 185 l 442 203 l 521 219 l 557 226 l 579 233 l 586 215 l 599 194 l 617 164 l 635 143 l 661 140 l 681 149 l 697 175 l 694 201 l 682 228 l 650 271 l 617 304 l 575 350 l 533 392 l 514 404 l 496 407 l 483 403 l 479 390 l 485 372 l 506 351 l 539 307 l 550 286 l 547 276 l 499 265 l 419 250 l 343 236 l 254 226 l 167 222 l 154 222 l 151 233 l 161 250 l 174 271 l 215 335 l 278 439 l 335 536 l 369 599 l 382 618 l 396 626 l 411 633 l 422 651 l 422 678 l 415 696 l 393 717 l 367 733 l 340 744 l 322 743 l 308 736 l 300 722 l 303 708 l 314 694 l 318 678 l 318 658 l 310 626 l 285 575 l 253 517 l 217 450 l 167 363 l 136 314 z "},"K":{"ha":833,"x_min":21,"x_max":808,"o":"m 667 294 l 618 294 l 586 300 l 578 310 l 578 325 l 592 388 l 601 440 l 615 508 l 624 538 l 635 551 l 650 564 l 651 583 l 643 606 l 618 624 l 585 647 l 558 654 l 536 649 l 510 633 l 475 626 l 419 617 l 367 607 l 311 601 l 267 596 l 226 594 l 193 597 l 182 604 l 169 614 l 156 613 l 151 604 l 146 592 l 151 575 l 163 556 l 185 533 l 211 517 l 233 514 l 258 521 l 303 532 l 357 546 l 443 564 l 497 576 l 519 578 l 531 571 l 535 540 l 525 440 l 513 354 l 501 300 l 492 289 l 447 283 l 328 274 l 236 263 l 156 249 l 94 240 l 81 243 l 60 258 l 43 263 l 31 258 l 25 250 l 21 235 l 28 214 l 46 192 l 68 174 l 89 165 l 106 163 l 118 167 l 133 176 l 151 183 l 215 200 l 285 213 l 354 221 l 424 225 l 518 231 l 568 231 l 624 232 l 686 232 l 731 229 l 761 219 l 783 222 l 797 236 l 808 250 l 804 269 l 792 289 l 769 300 l 746 304 l 718 301 l 703 297 l 688 296 l 667 294 z "},"L":{"ha":833,"x_min":29,"x_max":808,"o":"m 688 317 l 749 381 l 799 440 l 808 460 l 808 475 l 803 485 l 792 488 l 779 482 l 763 464 l 736 431 l 696 392 l 650 353 l 594 310 l 549 276 l 504 247 l 485 239 l 475 239 l 467 244 l 464 257 l 463 283 l 465 396 l 467 508 l 467 560 l 471 617 l 472 642 l 482 658 l 482 682 l 475 703 l 456 717 l 417 729 l 404 732 l 388 732 l 378 724 l 374 711 l 376 694 l 386 681 l 399 672 l 408 658 l 410 642 l 411 576 l 411 506 l 410 369 l 407 265 l 403 222 l 396 206 l 388 196 l 386 182 l 389 165 l 397 151 l 411 135 l 428 122 l 443 118 l 460 124 l 474 136 l 479 147 l 483 160 l 525 189 l 585 231 l 642 274 l 688 317 m 139 325 l 118 278 l 92 229 l 61 178 l 35 143 l 29 129 l 29 121 l 38 114 l 51 118 l 72 136 l 100 161 l 129 201 l 158 250 l 183 297 l 208 353 l 228 422 l 239 468 l 246 504 l 254 531 l 263 549 l 269 563 l 278 590 l 272 610 l 258 626 l 221 650 l 207 656 l 189 657 l 174 649 l 171 638 l 172 621 l 181 608 l 189 592 l 190 560 l 189 524 l 181 475 l 172 432 l 158 379 l 139 325 z "},"M":{"ha":806,"x_min":19,"x_max":783,"o":"m 272 286 l 229 283 l 185 278 l 139 269 l 96 267 l 76 272 l 63 283 l 50 294 l 35 297 l 24 289 l 19 271 l 26 254 l 43 233 l 68 215 l 92 204 l 119 196 l 143 199 l 164 210 l 189 217 l 228 225 l 265 229 l 343 236 l 383 238 l 436 243 l 560 246 l 649 246 l 696 242 l 724 236 l 744 231 l 764 236 l 776 244 l 783 261 l 782 286 l 769 299 l 751 307 l 733 313 l 708 317 l 674 315 l 636 313 l 597 308 l 557 307 l 518 304 l 449 300 l 431 303 l 425 315 l 425 346 l 428 385 l 433 432 l 443 510 l 446 556 l 446 567 l 478 571 l 531 575 l 568 575 l 596 582 l 610 600 l 614 621 l 604 636 l 585 649 l 557 656 l 526 654 l 501 646 l 471 638 l 415 625 l 347 614 l 293 606 l 256 603 l 232 606 l 210 613 l 185 625 l 168 632 l 153 629 l 146 618 l 144 606 l 150 590 l 167 574 l 189 561 l 215 554 l 246 550 l 281 550 l 303 554 l 325 557 l 336 558 l 353 556 l 364 540 l 371 522 l 371 486 l 369 407 l 364 328 l 356 304 l 344 294 l 322 289 l 272 286 z "},"N":{"ha":778,"x_min":24,"x_max":760,"o":"m 756 560 l 760 582 l 749 603 l 728 617 l 706 622 l 682 622 l 647 615 l 601 604 l 540 594 l 447 583 l 407 578 l 351 574 l 296 571 l 263 569 l 256 576 l 256 586 l 261 596 l 275 618 l 297 649 l 310 667 l 329 693 l 349 706 l 358 721 l 356 742 l 344 760 l 328 776 l 293 799 l 271 803 l 251 803 l 240 796 l 233 782 l 235 768 l 247 758 l 256 743 l 258 728 l 251 706 l 235 679 l 210 644 l 174 597 l 136 551 l 103 514 l 71 490 l 47 461 l 32 444 l 25 429 l 24 414 l 39 408 l 60 413 l 92 426 l 124 449 l 160 483 l 189 514 l 207 532 l 217 535 l 226 533 l 243 517 l 267 510 l 288 508 l 318 511 l 350 515 l 381 519 l 411 525 l 429 519 l 440 507 l 444 488 l 440 461 l 433 436 l 418 386 l 401 342 l 381 300 l 356 256 l 328 218 l 294 178 l 267 150 l 240 122 l 226 106 l 219 88 l 224 74 l 238 69 l 251 72 l 290 101 l 322 128 l 364 169 l 394 208 l 425 251 l 450 293 l 479 354 l 504 415 l 514 440 l 528 463 l 542 476 l 546 492 l 543 506 l 536 514 l 528 521 l 529 529 l 540 536 l 558 538 l 586 542 l 628 543 l 663 543 l 713 540 l 729 539 l 744 546 l 756 560 z "},"O":{"ha":813,"x_min":21,"x_max":788,"o":"m 610 749 l 599 744 l 596 740 l 597 733 l 600 731 l 611 722 l 625 711 l 643 694 l 653 681 l 658 674 l 665 668 l 672 665 l 681 664 l 685 664 l 693 665 l 703 669 l 710 676 l 714 683 l 717 690 l 717 699 l 714 706 l 711 711 l 707 717 l 697 724 l 683 731 l 672 736 l 661 742 l 649 746 l 638 749 l 624 750 l 610 749 m 681 828 l 669 824 l 667 819 l 668 813 l 671 810 l 682 801 l 696 790 l 714 774 l 724 760 l 729 753 l 736 747 l 743 744 l 751 743 l 756 743 l 764 744 l 774 749 l 781 756 l 785 763 l 788 769 l 788 778 l 785 785 l 782 790 l 778 796 l 768 803 l 754 810 l 743 815 l 732 821 l 719 825 l 707 828 l 694 829 l 681 828 m 753 560 l 757 582 l 746 603 l 725 617 l 703 622 l 679 622 l 644 615 l 599 604 l 538 594 l 444 583 l 404 578 l 349 574 l 293 571 l 260 569 l 253 576 l 253 586 l 258 596 l 272 618 l 294 649 l 307 667 l 326 693 l 346 706 l 356 721 l 353 742 l 342 760 l 325 776 l 290 799 l 268 803 l 249 803 l 238 796 l 231 782 l 232 768 l 244 758 l 253 743 l 256 728 l 249 706 l 232 679 l 207 644 l 171 597 l 133 551 l 100 514 l 68 490 l 44 461 l 29 444 l 22 429 l 21 414 l 36 408 l 57 413 l 89 426 l 121 449 l 157 483 l 186 514 l 204 532 l 214 535 l 224 533 l 240 517 l 264 510 l 285 508 l 315 511 l 347 515 l 378 519 l 408 525 l 426 519 l 438 507 l 442 488 l 438 461 l 431 436 l 415 386 l 399 342 l 378 300 l 353 256 l 325 218 l 292 178 l 264 150 l 238 122 l 224 106 l 217 88 l 221 74 l 235 69 l 249 72 l 288 101 l 319 128 l 361 169 l 392 208 l 422 251 l 447 293 l 476 354 l 501 415 l 511 440 l 525 463 l 539 476 l 543 492 l 540 506 l 533 514 l 525 521 l 526 529 l 538 536 l 556 538 l 583 542 l 625 543 l 660 543 l 710 540 l 726 539 l 742 546 l 753 560 z "},"P":{"ha":771,"x_min":21,"x_max":749,"o":"m 417 104 l 497 108 l 568 114 l 628 118 l 654 121 l 668 125 l 681 131 l 690 138 l 699 149 l 701 161 l 699 175 l 690 185 l 678 192 l 661 196 l 642 197 l 625 196 l 603 190 l 546 179 l 486 172 l 436 171 l 411 174 l 393 181 l 379 193 l 368 210 l 361 236 l 357 272 l 351 371 l 350 422 l 453 457 l 514 476 l 564 493 l 592 500 l 601 500 l 611 499 l 617 490 l 614 479 l 606 469 l 597 458 l 563 425 l 514 381 l 507 371 l 504 363 l 506 357 l 510 350 l 521 344 l 533 346 l 543 351 l 588 376 l 647 417 l 679 436 l 690 442 l 703 447 l 715 451 l 729 457 l 738 464 l 744 471 l 749 482 l 749 493 l 746 500 l 739 510 l 729 521 l 717 533 l 706 543 l 697 550 l 685 560 l 674 568 l 663 574 l 651 576 l 638 576 l 625 574 l 611 571 l 592 564 l 571 557 l 504 538 l 432 515 l 381 501 l 356 500 l 347 503 l 347 560 l 347 592 l 350 626 l 358 638 l 364 647 l 365 658 l 364 669 l 353 682 l 340 694 l 324 706 l 308 714 l 293 722 l 278 728 l 267 729 l 256 728 l 246 724 l 235 714 l 231 704 l 231 693 l 236 683 l 243 678 l 254 668 l 261 661 l 268 653 l 271 643 l 274 632 l 272 565 l 274 486 l 250 469 l 224 457 l 193 444 l 164 433 l 129 421 l 117 417 l 107 418 l 94 422 l 83 426 l 72 431 l 60 433 l 49 433 l 38 432 l 26 425 l 21 413 l 21 400 l 29 388 l 40 375 l 51 364 l 68 351 l 86 342 l 106 336 l 122 338 l 133 343 l 144 353 l 204 379 l 243 400 l 254 401 l 264 401 l 272 397 l 275 389 l 279 381 l 286 324 l 290 275 l 293 251 l 296 225 l 301 201 l 307 182 l 318 163 l 331 147 l 346 131 l 364 119 l 381 113 l 394 107 l 417 104 z "},"Q":{"ha":771,"x_min":21,"x_max":749,"o":"m 424 668 l 413 664 l 410 660 l 411 653 l 414 650 l 425 642 l 439 631 l 457 614 l 467 600 l 472 593 l 479 588 l 486 585 l 494 583 l 499 583 l 507 585 l 517 589 l 524 596 l 528 603 l 531 610 l 531 618 l 528 625 l 525 631 l 521 636 l 511 643 l 497 650 l 486 656 l 475 661 l 463 665 l 451 668 l 438 669 l 424 668 m 494 747 l 483 743 l 481 739 l 482 732 l 485 729 l 496 721 l 510 710 l 528 693 l 538 679 l 543 672 l 550 667 l 557 664 l 565 663 l 569 663 l 578 664 l 588 668 l 594 675 l 599 682 l 601 689 l 601 697 l 599 704 l 596 710 l 592 715 l 582 722 l 568 729 l 557 735 l 546 740 l 533 744 l 521 747 l 508 749 l 494 747 m 417 104 l 497 108 l 568 114 l 628 118 l 654 121 l 668 125 l 681 131 l 690 138 l 699 149 l 701 161 l 699 175 l 690 185 l 678 192 l 661 196 l 642 197 l 625 196 l 603 190 l 546 179 l 486 172 l 436 171 l 411 174 l 393 181 l 379 193 l 368 210 l 361 236 l 357 272 l 351 371 l 350 422 l 453 457 l 514 476 l 564 493 l 592 500 l 601 500 l 611 499 l 617 490 l 614 479 l 606 469 l 597 458 l 563 425 l 514 381 l 507 371 l 504 363 l 506 357 l 510 350 l 521 344 l 533 346 l 543 351 l 588 376 l 647 417 l 679 436 l 690 442 l 703 447 l 715 451 l 729 457 l 738 464 l 744 471 l 749 482 l 749 493 l 746 500 l 739 510 l 729 521 l 717 533 l 706 543 l 697 550 l 685 560 l 674 568 l 663 574 l 651 576 l 638 576 l 625 574 l 611 571 l 592 564 l 571 557 l 504 538 l 432 515 l 381 501 l 356 500 l 347 503 l 347 560 l 347 592 l 350 626 l 358 638 l 364 647 l 365 658 l 364 669 l 353 682 l 340 694 l 324 706 l 308 714 l 293 722 l 278 728 l 267 729 l 256 728 l 246 724 l 235 714 l 231 704 l 231 693 l 236 683 l 243 678 l 254 668 l 261 661 l 268 653 l 271 643 l 274 632 l 272 565 l 274 486 l 250 469 l 224 457 l 193 444 l 164 433 l 129 421 l 117 417 l 107 418 l 94 422 l 83 426 l 72 431 l 60 433 l 49 433 l 38 432 l 26 425 l 21 413 l 21 400 l 29 388 l 40 375 l 51 364 l 68 351 l 86 342 l 106 336 l 122 338 l 133 343 l 144 353 l 204 379 l 243 400 l 254 401 l 264 401 l 272 397 l 275 389 l 279 381 l 286 324 l 290 275 l 293 251 l 296 225 l 301 201 l 307 182 l 318 163 l 331 147 l 346 131 l 364 119 l 381 113 l 394 107 l 417 104 z "},"R":{"ha":764,"x_min":22,"x_max":740,"o":"m 217 26 l 265 65 l 306 101 l 347 154 l 379 208 l 407 274 l 432 342 l 443 381 l 451 396 l 460 410 l 461 424 l 454 442 l 443 450 l 439 457 l 440 464 l 450 471 l 499 475 l 635 478 l 686 475 l 717 479 l 726 485 l 733 492 l 738 501 l 740 513 l 739 525 l 732 536 l 721 544 l 708 551 l 696 556 l 683 558 l 667 560 l 644 558 l 604 556 l 494 539 l 379 525 l 224 507 l 144 494 l 117 489 l 103 486 l 90 488 l 78 493 l 63 499 l 50 500 l 36 499 l 26 492 l 22 481 l 24 468 l 33 458 l 43 449 l 76 426 l 97 417 l 111 411 l 122 410 l 133 408 l 144 410 l 157 414 l 171 422 l 225 438 l 269 447 l 304 454 l 329 454 l 342 454 l 350 451 l 358 446 l 365 436 l 367 428 l 365 414 l 364 397 l 353 336 l 331 271 l 303 218 l 264 160 l 231 115 l 189 67 l 176 56 l 165 46 l 156 35 l 150 25 l 149 15 l 153 8 l 160 4 l 169 4 l 179 6 l 188 10 l 196 14 l 206 19 l 217 26 m 261 685 l 240 685 l 229 686 l 218 689 l 206 696 l 193 697 l 182 692 l 176 683 l 176 672 l 181 665 l 186 654 l 196 644 l 211 632 l 243 621 l 326 619 l 400 628 l 481 642 l 547 651 l 560 656 l 569 663 l 574 672 l 575 683 l 574 694 l 569 706 l 561 714 l 550 721 l 535 725 l 518 726 l 503 724 l 467 714 l 417 700 l 350 689 l 261 685 z "},"S":{"ha":819,"x_min":21,"x_max":794,"o":"m 617 733 l 606 729 l 603 725 l 604 718 l 607 715 l 618 707 l 632 696 l 650 679 l 660 665 l 665 658 l 672 653 l 679 650 l 688 649 l 692 649 l 700 650 l 710 654 l 717 661 l 721 668 l 724 675 l 724 683 l 721 690 l 718 696 l 714 701 l 704 708 l 690 715 l 679 721 l 668 726 l 656 731 l 644 733 l 631 735 l 617 733 m 688 813 l 676 808 l 674 804 l 675 797 l 678 794 l 689 786 l 703 775 l 721 758 l 731 744 l 736 738 l 743 732 l 750 729 l 758 728 l 763 728 l 771 729 l 781 733 l 788 740 l 792 747 l 794 754 l 794 763 l 792 769 l 789 775 l 785 781 l 775 788 l 761 794 l 750 800 l 739 806 l 726 810 l 714 813 l 701 814 l 688 813 m 215 26 l 264 65 l 304 101 l 346 154 l 378 208 l 406 274 l 431 342 l 442 381 l 450 396 l 458 410 l 460 424 l 453 442 l 442 450 l 438 457 l 439 464 l 449 471 l 497 475 l 633 478 l 685 475 l 715 479 l 725 485 l 732 492 l 736 501 l 739 513 l 738 525 l 731 536 l 719 544 l 707 551 l 694 556 l 682 558 l 665 560 l 643 558 l 603 556 l 493 539 l 378 525 l 222 507 l 143 494 l 115 489 l 101 486 l 89 488 l 76 493 l 61 499 l 49 500 l 35 499 l 25 492 l 21 481 l 22 468 l 32 458 l 42 449 l 75 426 l 96 417 l 110 411 l 121 410 l 132 408 l 143 410 l 156 414 l 169 422 l 224 438 l 268 447 l 303 454 l 328 454 l 340 454 l 349 451 l 357 446 l 364 436 l 365 428 l 364 414 l 363 397 l 351 336 l 329 271 l 301 218 l 263 160 l 229 115 l 188 67 l 175 56 l 164 46 l 154 35 l 149 25 l 147 15 l 151 8 l 158 4 l 168 4 l 178 6 l 186 10 l 194 14 l 204 19 l 215 26 m 260 685 l 239 685 l 228 686 l 217 689 l 204 696 l 192 697 l 181 692 l 175 683 l 175 672 l 179 665 l 185 654 l 194 644 l 210 632 l 242 621 l 325 619 l 399 628 l 479 642 l 546 651 l 558 656 l 568 663 l 572 672 l 574 683 l 572 694 l 568 706 l 560 714 l 549 721 l 533 725 l 517 726 l 501 724 l 465 714 l 415 700 l 349 689 l 260 685 z "},"T":{"ha":757,"x_min":22,"x_max":733,"o":"m 346 203 l 344 147 l 340 113 l 339 88 l 340 68 l 343 54 l 346 43 l 351 33 l 361 24 l 372 19 l 383 17 l 394 18 l 406 22 l 414 33 l 419 46 l 422 58 l 422 74 l 421 92 l 418 200 l 417 324 l 422 331 l 429 344 l 425 365 l 419 378 l 404 397 l 400 406 l 400 413 l 406 421 l 450 463 l 500 506 l 525 525 l 549 542 l 574 556 l 583 565 l 586 578 l 581 594 l 571 607 l 557 622 l 543 633 l 528 640 l 517 644 l 501 646 l 485 644 l 465 632 l 442 624 l 383 611 l 301 592 l 264 585 l 229 578 l 161 569 l 149 568 l 133 571 l 117 576 l 103 574 l 92 563 l 89 547 l 94 535 l 100 524 l 107 517 l 115 507 l 126 499 l 139 492 l 157 486 l 174 492 l 192 499 l 204 503 l 225 510 l 264 522 l 338 540 l 401 554 l 414 556 l 421 549 l 421 542 l 385 501 l 350 471 l 308 432 l 251 389 l 222 365 l 175 331 l 128 301 l 81 274 l 36 254 l 26 246 l 22 236 l 25 226 l 36 221 l 47 218 l 63 219 l 97 231 l 147 251 l 197 276 l 242 300 l 286 329 l 317 351 l 326 356 l 340 356 l 346 350 l 346 329 l 346 203 m 578 385 l 546 397 l 526 406 l 514 410 l 504 413 l 494 414 l 485 413 l 476 408 l 475 399 l 481 389 l 490 379 l 499 371 l 507 363 l 517 353 l 526 346 l 558 322 l 599 290 l 608 282 l 622 272 l 646 247 l 665 229 l 678 224 l 689 219 l 707 221 l 721 229 l 728 238 l 732 251 l 733 265 l 731 279 l 725 292 l 715 303 l 686 326 l 649 347 l 610 369 l 578 385 m 324 794 l 308 803 l 297 804 l 288 797 l 283 785 l 283 772 l 286 760 l 296 744 l 310 731 l 349 699 l 385 671 l 399 664 l 414 657 l 436 654 l 449 657 l 458 665 l 464 675 l 465 686 l 465 697 l 461 710 l 457 721 l 447 732 l 435 742 l 421 746 l 411 750 l 399 753 l 378 763 l 354 776 l 335 788 l 324 794 z "},"U":{"ha":833,"x_min":14,"x_max":822,"o":"m 14 424 l 17 415 l 18 410 l 19 404 l 24 397 l 29 392 l 36 389 l 43 383 l 51 381 l 61 376 l 72 375 l 82 374 l 92 372 l 99 372 l 110 375 l 119 376 l 131 382 l 143 389 l 156 397 l 172 408 l 186 417 l 204 429 l 222 442 l 235 450 l 246 458 l 260 467 l 272 475 l 285 479 l 293 482 l 307 482 l 318 482 l 331 482 l 342 478 l 356 472 l 367 465 l 381 457 l 392 449 l 408 436 l 421 428 l 436 415 l 447 407 l 463 396 l 474 386 l 501 368 l 518 356 l 538 343 l 564 328 l 583 315 l 603 301 l 618 292 l 633 282 l 654 268 l 669 260 l 689 249 l 707 238 l 722 228 l 738 221 l 751 214 l 768 207 l 781 204 l 796 206 l 808 211 l 818 219 l 822 235 l 819 246 l 817 256 l 808 265 l 796 272 l 781 279 l 767 285 l 750 292 l 735 299 l 717 308 l 699 318 l 679 329 l 663 338 l 647 347 l 628 357 l 610 368 l 589 381 l 565 394 l 554 401 l 542 410 l 525 422 l 513 429 l 493 444 l 472 460 l 453 474 l 439 482 l 424 493 l 406 506 l 389 515 l 372 525 l 360 531 l 350 535 l 340 536 l 331 538 l 318 539 l 307 539 l 297 538 l 285 536 l 272 535 l 261 532 l 253 529 l 243 525 l 235 521 l 226 515 l 217 508 l 206 501 l 190 489 l 175 478 l 156 465 l 138 453 l 121 442 l 115 440 l 104 436 l 96 435 l 88 433 l 79 435 l 69 436 l 61 436 l 56 438 l 49 439 l 42 440 l 32 440 l 22 438 l 17 432 l 14 424 z "},"V":{"ha":833,"x_min":14,"x_max":822,"o":"m 14 424 l 17 415 l 18 410 l 19 404 l 24 397 l 29 392 l 36 389 l 43 383 l 51 381 l 61 376 l 72 375 l 82 374 l 92 372 l 99 372 l 110 375 l 119 376 l 131 382 l 143 389 l 156 397 l 172 408 l 186 417 l 204 429 l 222 442 l 235 450 l 246 458 l 260 467 l 272 475 l 285 479 l 293 482 l 307 482 l 318 482 l 331 482 l 342 478 l 356 472 l 367 465 l 381 457 l 392 449 l 408 436 l 421 428 l 436 415 l 447 407 l 463 396 l 474 386 l 501 368 l 518 356 l 538 343 l 564 328 l 583 315 l 603 301 l 618 292 l 633 282 l 654 268 l 669 260 l 689 249 l 707 238 l 722 228 l 738 221 l 751 214 l 768 207 l 781 204 l 796 206 l 808 211 l 818 219 l 822 235 l 819 246 l 817 256 l 808 265 l 796 272 l 781 279 l 767 285 l 750 292 l 735 299 l 717 308 l 699 318 l 679 329 l 663 338 l 647 347 l 628 357 l 610 368 l 589 381 l 565 394 l 554 401 l 542 410 l 525 422 l 513 429 l 493 444 l 472 460 l 453 474 l 439 482 l 424 493 l 406 506 l 389 515 l 372 525 l 360 531 l 350 535 l 340 536 l 331 538 l 318 539 l 307 539 l 297 538 l 285 536 l 272 535 l 261 532 l 253 529 l 243 525 l 235 521 l 226 515 l 217 508 l 206 501 l 190 489 l 175 478 l 156 465 l 138 453 l 121 442 l 115 440 l 104 436 l 96 435 l 88 433 l 79 435 l 69 436 l 61 436 l 56 438 l 49 439 l 42 440 l 32 440 l 22 438 l 17 432 l 14 424 m 436 607 l 425 603 l 422 599 l 424 592 l 426 589 l 438 581 l 451 569 l 469 553 l 479 539 l 485 532 l 492 526 l 499 524 l 507 522 l 511 522 l 519 524 l 529 528 l 536 535 l 540 542 l 543 549 l 543 557 l 540 564 l 538 569 l 533 575 l 524 582 l 510 589 l 499 594 l 488 600 l 475 604 l 464 607 l 450 608 l 436 607 m 507 686 l 496 682 l 493 678 l 494 671 l 497 668 l 508 660 l 522 649 l 540 632 l 550 618 l 556 611 l 563 606 l 569 603 l 578 601 l 582 601 l 590 603 l 600 607 l 607 614 l 611 621 l 614 628 l 614 636 l 611 643 l 608 649 l 604 654 l 594 661 l 581 668 l 569 674 l 558 679 l 546 683 l 533 686 l 521 688 l 507 686 z "},"W":{"ha":833,"x_min":14,"x_max":822,"o":"m 14 424 l 17 415 l 18 410 l 19 404 l 24 397 l 29 392 l 36 389 l 43 383 l 51 381 l 61 376 l 72 375 l 82 374 l 92 372 l 99 372 l 110 375 l 119 376 l 131 382 l 143 389 l 156 397 l 172 408 l 186 417 l 204 429 l 222 442 l 235 450 l 246 458 l 260 467 l 272 475 l 285 479 l 293 482 l 307 482 l 318 482 l 331 482 l 342 478 l 356 472 l 367 465 l 381 457 l 392 449 l 408 436 l 421 428 l 436 415 l 447 407 l 463 396 l 474 386 l 501 368 l 518 356 l 538 343 l 564 328 l 583 315 l 603 301 l 618 292 l 633 282 l 654 268 l 669 260 l 689 249 l 707 238 l 722 228 l 738 221 l 751 214 l 768 207 l 781 204 l 796 206 l 808 211 l 818 219 l 822 235 l 819 246 l 817 256 l 808 265 l 796 272 l 781 279 l 767 285 l 750 292 l 735 299 l 717 308 l 699 318 l 679 329 l 663 338 l 647 347 l 628 357 l 610 368 l 589 381 l 565 394 l 554 401 l 542 410 l 525 422 l 513 429 l 493 444 l 472 460 l 453 474 l 439 482 l 424 493 l 406 506 l 389 515 l 372 525 l 360 531 l 350 535 l 340 536 l 331 538 l 318 539 l 307 539 l 297 538 l 285 536 l 272 535 l 261 532 l 253 529 l 243 525 l 235 521 l 226 515 l 217 508 l 206 501 l 190 489 l 175 478 l 156 465 l 138 453 l 121 442 l 115 440 l 104 436 l 96 435 l 88 433 l 79 435 l 69 436 l 61 436 l 56 438 l 49 439 l 42 440 l 32 440 l 22 438 l 17 432 l 14 424 m 524 610 q 569 565 569 610 q 524 517 569 517 q 476 565 479 517 q 524 610 481 610 m 524 635 q 475 614 496 635 q 454 565 454 593 q 475 515 454 536 q 524 494 496 494 q 573 515 553 494 q 593 565 593 536 q 573 614 593 593 q 524 635 553 635 z "},"X":{"ha":667,"x_min":22,"x_max":644,"o":"m 264 275 l 218 225 l 165 176 l 94 118 l 42 78 l 32 69 l 24 61 l 22 51 l 24 43 l 31 38 l 43 38 l 54 39 l 65 43 l 86 51 l 119 71 l 185 117 l 231 153 l 300 218 l 351 272 l 382 306 l 407 329 l 421 332 l 433 328 l 460 299 l 485 271 l 508 247 l 519 239 l 535 235 l 549 233 l 561 238 l 569 246 l 575 251 l 579 258 l 582 269 l 582 282 l 578 296 l 568 310 l 561 319 l 553 331 l 525 357 l 486 392 l 475 404 l 472 413 l 478 424 l 511 472 l 550 526 l 596 586 l 607 599 l 624 608 l 636 615 l 643 625 l 644 635 l 643 646 l 640 658 l 626 675 l 608 688 l 594 697 l 572 711 l 561 715 l 551 718 l 536 718 l 526 715 l 519 707 l 517 697 l 519 686 l 524 679 l 526 671 l 529 661 l 531 650 l 531 640 l 526 626 l 517 611 l 493 571 l 471 538 l 451 510 l 436 490 l 403 451 l 393 447 l 382 447 l 368 453 l 339 467 l 289 488 l 242 501 l 218 507 l 210 507 l 199 507 l 189 500 l 188 489 l 194 479 l 203 471 l 213 465 l 224 460 l 279 433 l 326 407 l 346 392 l 344 379 l 304 324 l 264 275 z "},"Y":{"ha":563,"x_min":26,"x_max":536,"o":"m 51 718 l 38 717 l 31 710 l 26 697 l 29 686 l 36 674 l 43 669 l 50 658 l 56 647 l 57 638 l 57 628 l 57 614 l 56 597 l 57 560 l 57 522 l 57 489 l 57 465 l 57 443 l 57 417 l 57 403 l 57 383 l 57 367 l 57 350 l 57 326 l 57 311 l 57 292 l 57 272 l 57 257 l 56 232 l 56 217 l 56 206 l 56 190 l 49 179 l 46 169 l 44 156 l 46 146 l 50 133 l 60 126 l 72 118 l 86 117 l 101 117 l 114 119 l 118 129 l 132 132 l 146 139 l 161 144 l 182 156 l 204 171 l 231 185 l 251 197 l 275 211 l 293 222 l 307 232 l 325 240 l 349 258 l 369 276 l 386 290 l 403 307 l 418 322 l 429 335 l 442 350 l 456 364 l 467 383 l 482 407 l 496 429 l 511 454 l 521 475 l 528 489 l 532 504 l 533 517 l 536 533 l 532 540 l 524 539 l 518 532 l 507 522 l 497 508 l 488 493 l 479 478 l 469 463 l 460 451 l 449 436 l 435 419 l 422 400 l 408 385 l 393 367 l 382 353 l 364 338 l 347 324 l 335 314 l 321 304 l 307 294 l 292 285 l 276 275 l 257 263 l 239 253 l 218 240 l 203 232 l 185 221 l 169 211 l 147 200 l 129 194 l 118 194 l 118 208 l 117 222 l 115 244 l 115 263 l 115 286 l 115 303 l 115 322 l 115 339 l 115 363 l 115 383 l 115 411 l 115 446 l 118 474 l 118 486 l 119 511 l 121 526 l 124 547 l 128 567 l 131 585 l 135 607 l 139 625 l 142 647 l 140 663 l 133 674 l 126 685 l 118 693 l 106 703 l 97 707 l 83 717 l 67 719 l 51 718 z "},"[":{"ha":757,"x_min":21,"x_max":733,"o":"m 446 49 l 458 53 l 469 63 l 479 76 l 488 90 l 492 115 l 494 172 l 494 239 l 492 265 l 486 349 l 481 413 l 482 444 l 481 475 l 481 504 l 478 522 l 476 558 l 483 568 l 497 576 l 599 579 l 697 578 l 710 581 l 721 586 l 726 593 l 731 600 l 733 607 l 733 617 l 732 625 l 729 635 l 721 646 l 711 654 l 694 660 l 682 663 l 665 664 l 650 664 l 613 658 l 538 647 l 493 642 l 482 646 l 478 656 l 479 704 l 481 713 l 486 721 l 492 733 l 492 744 l 488 754 l 482 761 l 471 771 l 457 779 l 424 792 l 401 797 l 383 797 l 374 796 l 363 790 l 354 779 l 353 767 l 360 754 l 365 749 l 376 740 l 390 728 l 400 713 l 406 692 l 406 674 l 404 657 l 401 643 l 393 632 l 379 625 l 310 611 l 190 589 l 121 579 l 101 581 l 90 586 l 82 590 l 68 593 l 57 590 l 49 579 l 46 567 l 50 554 l 57 544 l 67 536 l 76 529 l 86 522 l 99 514 l 121 507 l 156 508 l 181 517 l 207 525 l 246 536 l 306 547 l 350 549 l 318 500 l 301 478 l 283 453 l 258 426 l 232 400 l 182 353 l 143 321 l 113 297 l 74 272 l 38 246 l 24 232 l 21 222 l 26 214 l 36 211 l 71 219 l 124 243 l 168 267 l 213 299 l 263 339 l 321 388 l 363 433 l 394 467 l 401 463 l 407 449 l 411 435 l 413 344 l 414 263 l 411 185 l 404 174 l 392 167 l 367 168 l 349 174 l 329 179 l 321 175 l 315 164 l 317 151 l 329 135 l 367 108 l 394 85 l 404 72 l 413 64 l 422 56 l 432 50 l 446 49 z "},"\\":{"ha":639,"x_min":31,"x_max":615,"o":"m 358 281 l 274 271 l 196 260 l 110 244 l 97 246 l 86 247 l 78 250 l 68 253 l 60 254 l 53 254 l 46 253 l 38 250 l 33 243 l 31 233 l 31 224 l 32 215 l 38 208 l 44 201 l 63 188 l 79 176 l 90 172 l 99 171 l 110 172 l 122 176 l 189 192 l 272 204 l 358 213 l 449 217 l 517 222 l 528 226 l 535 232 l 540 240 l 543 251 l 543 258 l 542 268 l 535 279 l 532 290 l 531 306 l 540 353 l 553 407 l 564 461 l 572 492 l 578 510 l 586 533 l 599 561 l 606 569 l 613 578 l 615 585 l 615 593 l 614 604 l 608 614 l 592 628 l 561 647 l 544 658 l 535 665 l 524 668 l 511 669 l 496 669 l 485 668 l 472 665 l 461 663 l 449 658 l 431 651 l 378 644 l 322 639 l 239 629 l 144 615 l 118 610 l 103 611 l 90 613 l 75 618 l 63 621 l 50 618 l 40 610 l 35 597 l 36 585 l 43 571 l 53 561 l 60 556 l 69 547 l 81 540 l 92 536 l 110 532 l 126 533 l 144 539 l 164 547 l 197 556 l 268 568 l 329 578 l 378 585 l 429 592 l 486 594 l 496 590 l 501 581 l 503 569 l 501 526 l 493 461 l 469 326 l 467 317 l 463 306 l 456 299 l 449 293 l 442 290 l 433 288 l 358 281 z "},"]":{"ha":736,"x_min":24,"x_max":714,"o":"m 607 846 l 596 842 l 593 838 l 594 831 l 597 828 l 608 819 l 622 808 l 640 792 l 650 778 l 656 771 l 663 765 l 669 763 l 678 761 l 682 761 l 690 763 l 700 767 l 707 774 l 711 781 l 714 788 l 714 796 l 711 803 l 708 808 l 704 814 l 694 821 l 681 828 l 669 833 l 658 839 l 646 843 l 633 846 l 621 847 l 607 846 m 536 767 l 525 763 l 522 758 l 524 751 l 526 749 l 538 740 l 551 729 l 569 713 l 579 699 l 585 692 l 592 686 l 599 683 l 607 682 l 611 682 l 619 683 l 629 688 l 636 694 l 640 701 l 643 708 l 643 717 l 640 724 l 638 729 l 633 735 l 624 742 l 610 749 l 599 754 l 588 760 l 575 764 l 564 767 l 550 768 l 536 767 m 351 281 l 267 271 l 189 260 l 103 244 l 90 246 l 79 247 l 71 250 l 61 253 l 53 254 l 46 254 l 39 253 l 31 250 l 26 243 l 24 233 l 24 224 l 25 215 l 31 208 l 38 201 l 56 188 l 72 176 l 83 172 l 92 171 l 103 172 l 115 176 l 182 192 l 265 204 l 351 213 l 442 217 l 510 222 l 521 226 l 528 232 l 533 240 l 536 251 l 536 258 l 535 268 l 528 279 l 525 290 l 524 306 l 533 353 l 546 407 l 557 461 l 565 492 l 571 510 l 579 533 l 592 561 l 599 569 l 606 578 l 608 585 l 608 593 l 607 604 l 601 614 l 585 628 l 554 647 l 538 658 l 528 665 l 517 668 l 504 669 l 489 669 l 478 668 l 465 665 l 454 663 l 442 658 l 424 651 l 371 644 l 315 639 l 232 629 l 138 615 l 111 610 l 96 611 l 83 613 l 68 618 l 56 621 l 43 618 l 33 610 l 28 597 l 29 585 l 36 571 l 46 561 l 53 556 l 63 547 l 74 540 l 85 536 l 103 532 l 119 533 l 138 539 l 157 547 l 190 556 l 261 568 l 322 578 l 371 585 l 422 592 l 479 594 l 489 590 l 494 581 l 496 569 l 494 526 l 486 461 l 463 326 l 460 317 l 456 306 l 449 299 l 442 293 l 435 290 l 426 288 l 351 281 z "},"^":{"ha":701,"x_min":21,"x_max":679,"o":"m 175 65 l 156 51 l 147 42 l 144 32 l 146 25 l 150 18 l 160 15 l 171 17 l 185 21 l 200 28 l 244 57 l 289 90 l 350 143 l 410 207 l 458 263 l 503 325 l 536 383 l 590 479 l 632 558 l 667 597 l 678 610 l 679 621 l 678 633 l 674 642 l 664 656 l 643 674 l 600 703 l 583 710 l 571 711 l 560 708 l 550 699 l 546 688 l 546 674 l 550 664 l 554 643 l 556 624 l 551 603 l 533 563 l 497 486 l 468 426 l 438 371 l 401 311 l 354 246 l 314 199 l 269 150 l 222 107 l 175 65 m 64 632 l 53 640 l 44 643 l 36 643 l 29 640 l 22 635 l 21 625 l 21 615 l 24 604 l 28 593 l 36 582 l 65 542 l 97 497 l 119 460 l 132 439 l 144 424 l 156 417 l 168 413 l 179 413 l 190 417 l 197 424 l 203 432 l 207 444 l 208 458 l 207 471 l 206 483 l 200 500 l 185 524 l 143 568 l 103 603 l 64 632 z "},"_":{"ha":861,"x_min":24,"x_max":839,"o":"m 661 750 l 650 746 l 647 742 l 649 735 l 651 732 l 663 724 l 676 713 l 694 696 l 704 682 l 710 675 l 717 669 l 724 667 l 732 665 l 736 665 l 744 667 l 754 671 l 761 678 l 765 685 l 768 692 l 768 700 l 765 707 l 763 713 l 758 718 l 749 725 l 735 732 l 724 738 l 713 743 l 700 747 l 689 750 l 675 751 l 661 750 m 732 829 l 721 825 l 718 821 l 719 814 l 722 811 l 733 803 l 747 792 l 765 775 l 775 761 l 781 754 l 788 749 l 794 746 l 803 744 l 807 744 l 815 746 l 825 750 l 832 757 l 836 764 l 839 771 l 839 779 l 836 786 l 833 792 l 829 797 l 819 804 l 806 811 l 794 817 l 783 822 l 771 826 l 758 829 l 746 831 l 732 829 m 178 65 l 158 51 l 150 42 l 147 32 l 149 25 l 153 18 l 163 15 l 174 17 l 188 21 l 203 28 l 247 57 l 292 90 l 353 143 l 413 207 l 461 263 l 506 325 l 539 383 l 593 479 l 635 558 l 669 597 l 681 610 l 682 621 l 681 633 l 676 642 l 667 656 l 646 674 l 603 703 l 586 710 l 574 711 l 563 708 l 553 699 l 549 688 l 549 674 l 553 664 l 557 643 l 558 624 l 554 603 l 536 563 l 500 486 l 471 426 l 440 371 l 404 311 l 357 246 l 317 199 l 272 150 l 225 107 l 178 65 m 67 632 l 56 640 l 47 643 l 39 643 l 32 640 l 25 635 l 24 625 l 24 615 l 26 604 l 31 593 l 39 582 l 68 542 l 100 497 l 122 460 l 135 439 l 147 424 l 158 417 l 171 413 l 182 413 l 193 417 l 200 424 l 206 432 l 210 444 l 211 458 l 210 471 l 208 483 l 203 500 l 188 524 l 146 568 l 106 603 l 67 632 z "},"`":{"ha":417,"x_min":31,"x_max":383,"o":"m 169 69 l 167 131 l 161 219 l 158 318 l 156 382 l 153 447 l 157 457 l 167 461 l 178 460 l 197 446 l 231 419 l 258 396 l 293 363 l 321 344 l 338 339 l 351 339 l 365 344 l 375 356 l 382 368 l 383 388 l 381 406 l 372 421 l 360 431 l 346 442 l 317 460 l 272 482 l 232 497 l 210 503 l 192 503 l 175 506 l 163 514 l 154 525 l 151 535 l 149 569 l 146 622 l 149 640 l 156 661 l 158 688 l 154 711 l 140 733 l 117 756 l 93 769 l 74 776 l 56 779 l 44 776 l 36 771 l 31 760 l 31 747 l 38 738 l 53 719 l 63 696 l 68 675 l 72 642 l 75 588 l 76 531 l 76 356 l 76 311 l 76 232 l 78 81 l 81 53 l 89 32 l 97 18 l 108 10 l 121 6 l 133 7 l 146 15 l 158 29 l 165 43 l 169 69 z "},"a":{"ha":458,"x_min":24,"x_max":439,"o":"m 332 728 l 321 724 l 318 719 l 319 713 l 322 710 l 333 701 l 347 690 l 365 674 l 375 660 l 381 653 l 388 647 l 394 644 l 403 643 l 407 643 l 415 644 l 425 649 l 432 656 l 436 663 l 439 669 l 439 678 l 436 685 l 433 690 l 429 696 l 419 703 l 406 710 l 394 715 l 383 721 l 371 725 l 358 728 l 346 729 l 332 728 m 261 649 l 250 644 l 247 640 l 249 633 l 251 631 l 263 622 l 276 611 l 294 594 l 304 581 l 310 574 l 317 568 l 324 565 l 332 564 l 336 564 l 344 565 l 354 569 l 361 576 l 365 583 l 368 590 l 368 599 l 365 606 l 363 611 l 358 617 l 349 624 l 335 631 l 324 636 l 313 642 l 300 646 l 289 649 l 275 650 l 261 649 m 163 69 l 160 131 l 154 219 l 151 318 l 149 382 l 146 447 l 150 457 l 160 461 l 171 460 l 190 446 l 224 419 l 251 396 l 286 363 l 314 344 l 331 339 l 344 339 l 358 344 l 368 356 l 375 368 l 376 388 l 374 406 l 365 421 l 353 431 l 339 442 l 310 460 l 265 482 l 225 497 l 203 503 l 185 503 l 168 506 l 156 514 l 147 525 l 144 535 l 142 569 l 139 622 l 142 640 l 149 661 l 151 688 l 147 711 l 133 733 l 110 756 l 86 769 l 67 776 l 49 779 l 38 776 l 29 771 l 24 760 l 24 747 l 31 738 l 46 719 l 56 696 l 61 675 l 65 642 l 68 588 l 69 531 l 69 356 l 69 311 l 69 232 l 71 81 l 74 53 l 82 32 l 90 18 l 101 10 l 114 6 l 126 7 l 139 15 l 151 29 l 158 43 l 163 69 z "},"b":{"ha":625,"x_min":24,"x_max":604,"o":"m 57 119 l 36 107 l 28 97 l 24 88 l 25 81 l 29 74 l 38 71 l 49 71 l 64 74 l 79 79 l 126 106 l 172 135 l 238 182 l 303 242 l 356 293 l 406 351 l 443 407 l 504 497 l 553 574 l 590 610 l 603 621 l 604 632 l 604 644 l 601 653 l 593 668 l 574 688 l 532 719 l 517 728 l 504 731 l 493 729 l 482 719 l 478 708 l 476 694 l 479 685 l 482 664 l 482 644 l 476 624 l 454 585 l 413 513 l 379 456 l 343 403 l 303 346 l 250 285 l 207 240 l 158 196 l 108 157 l 57 119 z "},"c":{"ha":771,"x_min":25,"x_max":751,"o":"m 33 263 l 29 251 l 26 240 l 25 228 l 29 217 l 36 206 l 49 199 l 61 196 l 71 197 l 83 199 l 94 204 l 103 210 l 114 221 l 122 229 l 139 251 l 157 293 l 165 326 l 168 358 l 165 379 l 161 392 l 151 399 l 142 400 l 132 397 l 122 386 l 111 367 l 85 329 l 61 300 l 53 290 l 43 279 l 39 272 l 33 263 m 622 389 l 610 397 l 600 401 l 590 406 l 578 407 l 569 404 l 563 399 l 558 392 l 558 383 l 561 374 l 568 363 l 578 351 l 586 342 l 611 311 l 635 276 l 657 238 l 678 210 l 688 200 l 697 193 l 714 190 l 729 194 l 739 204 l 746 214 l 750 228 l 751 239 l 749 250 l 744 263 l 731 289 l 708 321 l 668 356 l 622 389 m 424 133 l 425 144 l 426 154 l 428 165 l 429 176 l 433 290 l 435 439 l 435 482 l 436 493 l 440 500 l 444 504 l 451 508 l 460 511 l 486 514 l 553 515 l 603 513 l 618 511 l 628 510 l 640 510 l 651 508 l 664 507 l 674 507 l 685 508 l 692 513 l 699 519 l 703 528 l 706 536 l 707 543 l 707 550 l 706 558 l 700 567 l 693 574 l 682 581 l 671 588 l 660 593 l 647 599 l 639 601 l 629 604 l 618 606 l 608 606 l 600 606 l 590 603 l 581 600 l 569 596 l 549 589 l 515 585 l 482 585 l 449 589 l 442 592 l 439 599 l 439 632 l 440 660 l 442 674 l 444 686 l 450 699 l 453 708 l 454 718 l 454 726 l 451 735 l 446 744 l 439 751 l 428 758 l 417 765 l 379 785 l 367 788 l 360 788 l 353 788 l 344 785 l 338 779 l 333 775 l 329 765 l 328 758 l 329 751 l 332 746 l 340 739 l 346 733 l 351 726 l 356 719 l 360 711 l 363 701 l 364 693 l 365 654 l 365 614 l 363 600 l 357 588 l 347 576 l 332 571 l 254 563 l 206 560 l 151 557 l 139 558 l 128 563 l 115 567 l 103 568 l 92 565 l 85 560 l 81 553 l 79 540 l 83 529 l 94 515 l 107 506 l 124 494 l 142 489 l 160 486 l 178 488 l 196 489 l 218 492 l 274 494 l 326 499 l 340 499 l 349 494 l 353 488 l 353 435 l 349 288 l 347 210 l 346 190 l 344 182 l 340 175 l 332 171 l 319 169 l 308 171 l 285 179 l 272 183 l 256 188 l 243 189 l 232 186 l 225 179 l 224 171 l 226 164 l 231 157 l 239 149 l 249 142 l 261 132 l 290 113 l 318 92 l 339 69 l 347 64 l 356 58 l 367 56 l 378 56 l 389 60 l 399 67 l 404 75 l 410 85 l 414 94 l 417 106 l 421 119 l 424 133 z "},"d":{"ha":778,"x_min":19,"x_max":754,"o":"m 576 738 l 565 733 l 563 729 l 564 722 l 567 719 l 578 711 l 592 700 l 610 683 l 619 669 l 625 663 l 632 657 l 639 654 l 647 653 l 651 653 l 660 654 l 669 658 l 676 665 l 681 672 l 683 679 l 683 688 l 681 694 l 678 700 l 674 706 l 664 713 l 650 719 l 639 725 l 628 731 l 615 735 l 604 738 l 590 739 l 576 738 m 647 817 l 636 813 l 633 808 l 635 801 l 638 799 l 649 790 l 663 779 l 681 763 l 690 749 l 696 742 l 703 736 l 710 733 l 718 732 l 722 732 l 731 733 l 740 738 l 747 744 l 751 751 l 754 758 l 754 767 l 751 774 l 749 779 l 744 785 l 735 792 l 721 799 l 710 804 l 699 810 l 686 814 l 674 817 l 661 818 l 647 817 m 28 263 l 24 251 l 21 240 l 19 228 l 24 217 l 31 206 l 43 199 l 56 196 l 65 197 l 78 199 l 89 204 l 97 210 l 108 221 l 117 229 l 133 251 l 151 293 l 160 326 l 163 358 l 160 379 l 156 392 l 146 399 l 136 400 l 126 397 l 117 386 l 106 367 l 79 329 l 56 300 l 47 290 l 38 279 l 33 272 l 28 263 m 617 389 l 604 397 l 594 401 l 585 406 l 572 407 l 564 404 l 557 399 l 553 392 l 553 383 l 556 374 l 563 363 l 572 351 l 581 342 l 606 311 l 629 276 l 651 238 l 672 210 l 682 200 l 692 193 l 708 190 l 724 194 l 733 204 l 740 214 l 744 228 l 746 239 l 743 250 l 739 263 l 725 289 l 703 321 l 663 356 l 617 389 m 418 133 l 419 144 l 421 154 l 422 165 l 424 176 l 428 290 l 429 439 l 429 482 l 431 493 l 435 500 l 439 504 l 446 508 l 454 511 l 481 514 l 547 515 l 597 513 l 613 511 l 622 510 l 635 510 l 646 508 l 658 507 l 668 507 l 679 508 l 686 513 l 693 519 l 697 528 l 700 536 l 701 543 l 701 550 l 700 558 l 694 567 l 688 574 l 676 581 l 665 588 l 654 593 l 642 599 l 633 601 l 624 604 l 613 606 l 603 606 l 594 606 l 585 603 l 575 600 l 564 596 l 543 589 l 510 585 l 476 585 l 443 589 l 436 592 l 433 599 l 433 632 l 435 660 l 436 674 l 439 686 l 444 699 l 447 708 l 449 718 l 449 726 l 446 735 l 440 744 l 433 751 l 422 758 l 411 765 l 374 785 l 361 788 l 354 788 l 347 788 l 339 785 l 332 779 l 328 775 l 324 765 l 322 758 l 324 751 l 326 746 l 335 739 l 340 733 l 346 726 l 350 719 l 354 711 l 357 701 l 358 693 l 360 654 l 360 614 l 357 600 l 351 588 l 342 576 l 326 571 l 249 563 l 200 560 l 146 557 l 133 558 l 122 563 l 110 567 l 97 568 l 86 565 l 79 560 l 75 553 l 74 540 l 78 529 l 89 515 l 101 506 l 118 494 l 136 489 l 154 486 l 172 488 l 190 489 l 213 492 l 268 494 l 321 499 l 335 499 l 343 494 l 347 488 l 347 435 l 343 288 l 342 210 l 340 190 l 339 182 l 335 175 l 326 171 l 314 169 l 303 171 l 279 179 l 267 183 l 250 188 l 238 189 l 226 186 l 219 179 l 218 171 l 221 164 l 225 157 l 233 149 l 243 142 l 256 132 l 285 113 l 313 92 l 333 69 l 342 64 l 350 58 l 361 56 l 372 56 l 383 60 l 393 67 l 399 75 l 404 85 l 408 94 l 411 106 l 415 119 l 418 133 z "},"e":{"ha":771,"x_min":19,"x_max":746,"o":"m 594 792 q 546 771 567 792 q 525 722 525 750 q 546 672 525 693 q 594 651 567 651 q 644 672 624 651 q 664 722 664 693 q 644 771 664 750 q 594 792 624 792 m 594 767 q 640 722 640 767 q 594 674 640 674 q 547 722 550 674 q 594 767 551 767 m 28 263 l 24 251 l 21 240 l 19 228 l 24 217 l 31 206 l 43 199 l 56 196 l 65 197 l 78 199 l 89 204 l 97 210 l 108 221 l 117 229 l 133 251 l 151 293 l 160 326 l 163 358 l 160 379 l 156 392 l 146 399 l 136 400 l 126 397 l 117 386 l 106 367 l 79 329 l 56 300 l 47 290 l 38 279 l 33 272 l 28 263 m 617 389 l 604 397 l 594 401 l 585 406 l 572 407 l 564 404 l 557 399 l 553 392 l 553 383 l 556 374 l 563 363 l 572 351 l 581 342 l 606 311 l 629 276 l 651 238 l 672 210 l 682 200 l 692 193 l 708 190 l 724 194 l 733 204 l 740 214 l 744 228 l 746 239 l 743 250 l 739 263 l 725 289 l 703 321 l 663 356 l 617 389 m 418 133 l 419 144 l 421 154 l 422 165 l 424 176 l 428 290 l 429 439 l 429 482 l 431 493 l 435 500 l 439 504 l 446 508 l 454 511 l 481 514 l 547 515 l 597 513 l 613 511 l 622 510 l 635 510 l 646 508 l 658 507 l 668 507 l 679 508 l 686 513 l 693 519 l 697 528 l 700 536 l 701 543 l 701 550 l 700 558 l 694 567 l 688 574 l 676 581 l 665 588 l 654 593 l 642 599 l 633 601 l 624 604 l 613 606 l 603 606 l 594 606 l 585 603 l 575 600 l 564 596 l 543 589 l 510 585 l 476 585 l 443 589 l 436 592 l 433 599 l 433 632 l 435 660 l 436 674 l 439 686 l 444 699 l 447 708 l 449 718 l 449 726 l 446 735 l 440 744 l 433 751 l 422 758 l 411 765 l 374 785 l 361 788 l 354 788 l 347 788 l 339 785 l 332 779 l 328 775 l 324 765 l 322 758 l 324 751 l 326 746 l 335 739 l 340 733 l 346 726 l 350 719 l 354 711 l 357 701 l 358 693 l 360 654 l 360 614 l 357 600 l 351 588 l 342 576 l 326 571 l 249 563 l 200 560 l 146 557 l 133 558 l 122 563 l 110 567 l 97 568 l 86 565 l 79 560 l 75 553 l 74 540 l 78 529 l 89 515 l 101 506 l 118 494 l 136 489 l 154 486 l 172 488 l 190 489 l 213 492 l 268 494 l 321 499 l 335 499 l 343 494 l 347 488 l 347 435 l 343 288 l 342 210 l 340 190 l 339 182 l 335 175 l 326 171 l 314 169 l 303 171 l 279 179 l 267 183 l 250 188 l 238 189 l 226 186 l 219 179 l 218 171 l 221 164 l 225 157 l 233 149 l 243 142 l 256 132 l 285 113 l 313 92 l 333 69 l 342 64 l 350 58 l 361 56 l 372 56 l 383 60 l 393 67 l 399 75 l 404 85 l 408 94 l 411 106 l 415 119 l 418 133 z "},"f":{"ha":799,"x_min":21,"x_max":775,"o":"m 549 719 l 518 711 l 478 700 l 415 686 l 338 672 l 264 663 l 211 661 l 194 663 l 181 667 l 167 672 l 156 674 l 144 671 l 139 663 l 138 651 l 139 640 l 144 633 l 161 618 l 178 608 l 200 599 l 218 594 l 249 593 l 278 594 l 289 592 l 294 589 l 300 585 l 308 575 l 313 567 l 315 558 l 317 526 l 317 489 l 315 474 l 308 465 l 300 458 l 289 454 l 269 449 l 256 447 l 204 439 l 151 431 l 117 424 l 100 422 l 76 424 l 64 428 l 54 432 l 43 432 l 32 428 l 25 421 l 22 414 l 21 401 l 26 389 l 38 375 l 53 361 l 69 351 l 86 344 l 100 342 l 115 343 l 143 350 l 178 360 l 208 368 l 253 378 l 265 382 l 279 385 l 289 383 l 300 382 l 308 375 l 314 365 l 317 251 l 318 240 l 319 228 l 321 215 l 322 206 l 325 194 l 328 185 l 332 172 l 339 164 l 346 156 l 356 146 l 365 139 l 381 131 l 396 125 l 413 121 l 428 117 l 447 113 l 489 110 l 542 110 l 625 117 l 650 119 l 668 121 l 679 122 l 692 124 l 704 128 l 715 132 l 725 136 l 733 140 l 740 147 l 744 154 l 746 163 l 744 175 l 743 182 l 738 189 l 728 196 l 721 200 l 714 203 l 706 206 l 696 207 l 685 208 l 674 207 l 660 206 l 643 203 l 624 199 l 586 189 l 550 183 l 517 181 l 457 181 l 439 183 l 425 189 l 415 194 l 408 200 l 401 206 l 396 213 l 392 224 l 390 233 l 389 325 l 389 369 l 390 383 l 394 394 l 403 403 l 417 408 l 471 415 l 568 425 l 617 428 l 653 429 l 682 428 l 693 426 l 703 424 l 719 419 l 731 419 l 740 421 l 751 425 l 761 432 l 768 439 l 772 447 l 775 458 l 775 469 l 771 481 l 765 488 l 757 494 l 750 499 l 742 504 l 735 507 l 728 510 l 717 513 l 706 514 l 683 513 l 661 508 l 626 501 l 601 499 l 561 494 l 457 482 l 415 478 l 406 481 l 399 485 l 394 492 l 394 499 l 394 510 l 396 524 l 399 536 l 403 547 l 404 554 l 404 567 l 400 581 l 394 592 l 392 599 l 392 606 l 393 611 l 399 617 l 414 622 l 443 628 l 490 632 l 563 636 l 583 640 l 603 646 l 618 653 l 628 664 l 631 676 l 628 689 l 619 699 l 608 707 l 586 717 l 565 719 l 549 719 z "},"g":{"ha":639,"x_min":24,"x_max":614,"o":"m 575 399 l 581 456 l 585 489 l 590 536 l 596 568 l 603 597 l 606 604 l 607 611 l 610 617 l 611 624 l 613 632 l 614 639 l 614 644 l 613 651 l 600 669 l 576 690 l 565 699 l 557 704 l 547 707 l 539 707 l 529 707 l 518 706 l 479 700 l 400 690 l 318 681 l 258 672 l 193 663 l 126 653 l 99 651 l 81 654 l 69 658 l 60 661 l 47 663 l 39 660 l 33 654 l 29 644 l 29 633 l 32 626 l 36 621 l 43 613 l 58 601 l 74 592 l 90 585 l 101 582 l 110 581 l 119 582 l 129 585 l 138 588 l 186 600 l 274 614 l 324 621 l 374 628 l 432 635 l 465 639 l 490 640 l 497 639 l 504 636 l 508 629 l 510 624 l 511 618 l 513 590 l 514 511 l 513 501 l 510 494 l 501 489 l 476 485 l 408 475 l 326 464 l 282 458 l 214 447 l 163 438 l 124 431 l 100 431 l 88 433 l 75 439 l 65 442 l 57 442 l 51 438 l 46 431 l 46 418 l 49 407 l 57 397 l 67 390 l 75 385 l 92 375 l 106 371 l 117 371 l 129 371 l 176 381 l 240 392 l 304 403 l 340 410 l 382 417 l 419 421 l 465 424 l 492 421 l 501 411 l 506 399 l 504 343 l 496 286 l 492 271 l 489 263 l 483 256 l 474 251 l 436 247 l 376 240 l 306 233 l 263 228 l 210 219 l 133 208 l 108 206 l 96 206 l 82 208 l 69 213 l 61 215 l 50 219 l 40 221 l 31 218 l 25 210 l 24 199 l 26 192 l 29 183 l 36 172 l 47 163 l 60 153 l 74 146 l 85 142 l 94 139 l 106 138 l 117 136 l 126 138 l 143 144 l 174 151 l 211 160 l 244 165 l 297 172 l 347 176 l 400 181 l 469 183 l 529 185 l 544 189 l 554 197 l 560 206 l 564 214 l 565 221 l 565 229 l 564 239 l 560 250 l 558 263 l 563 293 l 568 339 l 575 399 z "},"h":{"ha":674,"x_min":21,"x_max":653,"o":"m 150 521 l 150 533 l 151 544 l 158 553 l 174 560 l 186 561 l 219 563 l 278 569 l 317 574 l 397 582 l 481 590 l 515 592 l 525 590 l 531 588 l 536 581 l 538 575 l 538 557 l 538 522 l 536 488 l 531 425 l 525 365 l 521 326 l 518 314 l 515 303 l 510 296 l 503 292 l 486 289 l 393 281 l 289 274 l 203 267 l 192 271 l 185 281 l 182 292 l 181 307 l 171 365 l 161 446 l 153 497 l 150 521 m 81 515 l 83 496 l 94 419 l 103 339 l 104 308 l 108 253 l 113 219 l 114 208 l 117 200 l 121 190 l 126 181 l 133 174 l 140 168 l 151 164 l 163 165 l 172 172 l 178 179 l 181 189 l 186 194 l 193 197 l 203 200 l 211 201 l 297 213 l 381 217 l 488 215 l 551 215 l 558 217 l 567 221 l 575 226 l 579 233 l 582 239 l 583 246 l 586 296 l 597 360 l 606 413 l 619 475 l 631 525 l 644 556 l 649 565 l 651 576 l 653 588 l 651 597 l 647 607 l 635 624 l 601 647 l 572 661 l 554 665 l 538 664 l 525 660 l 513 656 l 493 651 l 443 647 l 358 639 l 290 632 l 247 628 l 165 619 l 126 614 l 117 615 l 107 619 l 103 622 l 92 626 l 82 629 l 69 632 l 57 632 l 44 631 l 36 628 l 29 625 l 22 618 l 21 608 l 24 599 l 32 589 l 44 578 l 51 571 l 65 556 l 72 544 l 76 535 l 81 515 z "},"i":{"ha":625,"x_min":21,"x_max":604,"o":"m 497 385 l 522 446 l 550 524 l 575 610 l 582 625 l 603 649 l 604 660 l 603 671 l 599 678 l 593 686 l 569 704 l 550 717 l 542 721 l 533 722 l 522 721 l 517 719 l 508 717 l 489 708 l 449 699 l 379 688 l 301 678 l 229 669 l 167 669 l 142 672 l 129 676 l 117 685 l 103 688 l 90 686 l 83 682 l 81 679 l 78 672 l 76 665 l 76 654 l 83 644 l 94 635 l 104 628 l 115 621 l 129 614 l 142 608 l 163 600 l 181 597 l 200 600 l 229 606 l 269 613 l 310 621 l 376 632 l 410 635 l 471 642 l 485 640 l 490 638 l 494 635 l 496 626 l 496 619 l 490 588 l 485 563 l 475 547 l 457 539 l 424 531 l 393 525 l 297 506 l 217 490 l 174 482 l 146 481 l 125 479 l 107 481 l 92 485 l 75 490 l 60 496 l 46 497 l 32 494 l 24 486 l 21 476 l 24 465 l 28 457 l 42 442 l 64 428 l 88 418 l 106 413 l 125 411 l 143 414 l 167 421 l 197 428 l 226 435 l 300 450 l 368 464 l 417 471 l 435 472 l 444 467 l 446 457 l 444 449 l 432 408 l 417 374 l 399 333 l 375 289 l 350 249 l 324 211 l 292 171 l 251 131 l 211 97 l 179 71 l 161 56 l 151 44 l 147 38 l 144 31 l 144 24 l 151 18 l 165 18 l 181 22 l 193 29 l 232 51 l 256 68 l 288 93 l 339 136 l 376 175 l 410 215 l 438 260 l 464 306 l 482 344 l 497 385 z "},"j":{"ha":833,"x_min":361,"x_max":443,"o":"m 436 572 l 443 675 l 439 707 l 425 732 l 407 746 l 383 754 l 364 747 l 361 725 l 369 704 l 368 679 l 368 588 l 368 415 l 365 285 l 365 217 l 361 143 l 365 111 l 381 86 l 408 74 l 429 71 l 438 76 l 439 90 l 435 115 l 436 139 l 438 281 l 436 406 l 436 572 z "},"k":{"ha":724,"x_min":25,"x_max":704,"o":"m 524 381 l 626 374 l 658 379 l 683 393 l 697 411 l 704 436 l 694 450 l 672 454 l 656 449 l 631 449 l 539 449 l 367 447 l 236 449 l 168 449 l 94 453 l 63 449 l 38 432 l 25 404 l 26 389 l 38 378 l 51 376 l 67 378 l 90 378 l 232 376 l 357 379 l 524 381 z "},"l":{"ha":715,"x_min":21,"x_max":688,"o":"m 543 868 l 532 864 l 529 860 l 531 853 l 533 850 l 544 842 l 558 831 l 576 814 l 586 800 l 592 793 l 599 788 l 606 785 l 614 783 l 618 783 l 626 785 l 636 789 l 643 796 l 647 803 l 650 810 l 650 818 l 647 825 l 644 831 l 640 836 l 631 843 l 617 850 l 606 856 l 594 861 l 582 865 l 569 868 l 557 869 l 543 868 m 472 789 l 461 785 l 458 781 l 460 774 l 463 771 l 474 763 l 488 751 l 506 735 l 515 721 l 521 714 l 528 708 l 535 706 l 543 704 l 547 704 l 556 706 l 565 710 l 572 717 l 576 724 l 579 731 l 579 739 l 576 746 l 574 751 l 569 757 l 560 764 l 546 771 l 535 776 l 524 782 l 511 786 l 500 789 l 486 790 l 472 789 m 343 92 l 393 133 l 446 179 l 506 243 l 556 315 l 583 361 l 610 414 l 635 472 l 657 533 l 668 549 l 685 568 l 688 589 l 683 613 l 649 638 l 624 657 l 597 657 l 583 651 l 571 643 l 554 638 l 390 635 l 388 656 l 388 685 l 392 703 l 399 714 l 399 729 l 392 749 l 372 764 l 331 783 l 310 790 l 290 789 l 276 778 l 271 767 l 269 753 l 283 735 l 300 721 l 313 704 l 317 675 l 317 628 l 251 619 l 146 606 l 104 604 l 78 615 l 53 622 l 36 619 l 26 610 l 21 594 l 25 579 l 42 568 l 63 551 l 68 524 l 74 468 l 78 415 l 83 382 l 93 367 l 110 360 l 125 360 l 138 368 l 149 381 l 154 414 l 147 489 l 144 511 l 143 528 l 154 542 l 207 554 l 333 569 l 442 578 l 546 581 l 581 581 l 586 574 l 586 551 l 572 507 l 543 438 l 507 371 l 486 333 l 463 292 l 431 250 l 399 214 l 357 172 l 313 132 l 289 114 l 265 94 l 247 82 l 236 69 l 231 57 l 232 46 l 242 39 l 263 40 l 297 64 l 343 92 z "}}}
